<?xml version="1.0" encoding="UTF-8" standalone="no"?>
<!-- Created with Inkscape (http://www.inkscape.org/) -->
<svg xmlns:dc="http://purl.org/dc/elements/1.1/" xmlns:cc="http://creativecommons.org/ns#" xmlns:rdf="http://www.w3.org/1999/02/22-rdf-syntax-ns#" xmlns:svg="http://www.w3.org/2000/svg" xmlns="http://www.w3.org/2000/svg" xmlns:sodipodi="http://sodipodi.sourceforge.net/DTD/sodipodi-0.dtd" xmlns:inkscape="http://www.inkscape.org/namespaces/inkscape" width="370.17422" height="396.88965" id="fred" style="display:inline" sodipodi:version="0.32" inkscape:version="0.46+devel" sodipodi:docname="fred.svg" inkscape:output_extension="org.inkscape.output.svg.inkscape">
  <metadata id="metadata9">
    <rdf:RDF>
      <cc:Work rdf:about="">
        <dc:format>image/svg+xml</dc:format>
        <dc:type rdf:resource="http://purl.org/dc/dcmitype/StillImage"/>
      </cc:Work>
    </rdf:RDF>
  </metadata>
  <defs id="defs7"/>
  <sodipodi:namedview pagecolor="#ffffff" bordercolor="#666666" borderopacity="1" objecttolerance="10" gridtolerance="10" guidetolerance="10" inkscape:pageopacity="0" inkscape:pageshadow="2" inkscape:window-width="640" inkscape:window-height="480" id="namedview5" showgrid="false" inkscape:zoom="0.67021148" inkscape:cx="185.08711" inkscape:cy="198.44482" inkscape:window-x="0" inkscape:window-y="0" inkscape:current-layer="fred"/>
  <path id="outline" d="m 165.9225,0.00468 c -23.1071,0.41293 -44.469,28.01542 -44.469,28.01542 -35.2178,-29.06487 -34.997,38.99921 -34.997,38.99921 -32.7625,15.1205 -24.2801,68.749 -24.2801,68.749 l 10.2279,2.2679 c -8.2115,16.0853 -12.8515,34.2425 -12.8515,53.4517 0,5.6711 0.4208,11.2143 1.2006,16.6758 -17.3286,2.9355 -50.6767,10.6293 -44.9135,25.6141 l -3.0684,6.1812 c 0,0 -15.4551,6.1829 -12.3623,16.2311 1.8547,6.0256 16.7266,18.1062 28.3711,26.8593 -4.2465,1.6764 -17.6821,7.7452 -14.3635,16.8536 3.9252,10.7669 53.9409,39.7553 53.9409,39.7553 l -24.5024,-37.265 c 0,0 43.943,-5.1771 59.4105,-19.255 1.9576,1.6087 3.9445,3.1824 6.0033,4.6692 -8.5135,4.0483 -14.1199,9.3937 -11.4731,16.2756 l -3.1127,6.1812 c 0,0 -15.4551,6.183 -12.3625,16.2312 3.0929,10.0481 42.5126,37.0871 42.5123,37.0871 l -19.3439,-34.7748 c 0,0 21.8533,-3.0249 36.9536,-10.8504 -1.586,21.6171 15.9068,48.0953 44.9138,64.7913 28.1019,16.1751 58.6545,18.2875 76.7977,7.2929 -9.0188,-1.3622 -18.9105,-4.7757 -28.46,-10.2724 -25.4662,-14.6578 -39.2446,-38.5103 -30.7726,-53.2293 8.4437,-14.6698 35.8388,-14.7335 61.2338,-0.2223 -7.6649,-9.9201 -18.2269,-19.1732 -31.0394,-26.548 -0.5047,-0.2905 -1.0056,-0.5633 -1.5118,-0.8449 7.2379,-3.4681 14.0606,-7.6469 20.4111,-12.4068 1.5357,7.053 4.216,14.3646 8.1378,21.4785 5.1798,9.3958 11.7593,17.1626 18.8548,22.8571 -10.1898,-18.6212 -9.8238,-38.4939 0.9338,-44.4245 10.7938,-5.9505 27.9483,4.4046 38.2433,23.0793 3.8608,7.003 6.203,14.2046 7.0706,20.7671 5.6643,-8.9696 6.8438,-22.3043 3.3352,-36.4646 5.9444,-3.7607 36.0464,-23.1469 39.1326,-32.24 3.4106,-10.0481 -13.652,-16.2311 -13.652,-16.2311 l -3.3797,-6.1812 c 3.218,-7.5857 -4.6474,-13.3026 -15.653,-17.4763 5.9453,-4.5431 11.0294,-9.0799 11.9623,-11.8287 2.4806,-7.3147 -9.9611,-11.7842 -9.9611,-11.7842 l -2.4458,-4.4914 c 4.5996,-10.8418 -21.8269,-16.4256 -35.7975,-18.588 -8.1828,-58.103 -58.9333,-102.9011 -120.0215,-102.9011 -29.3304,0 -56.2812,10.3108 -77.2872,27.4818 3.9236,-11.1513 6.6705,-20.2334 6.6705,-20.2334 14.5227,3.1966 29.0381,-35.21935 29.0381,-35.21935 12.5869,2.77043 61.5007,-12.85153 61.5007,-12.85153 0,0 16.1466,16.71332 23.9686,4.22456 7.8236,-12.48592 23.9687,0.22234 23.9687,0.22234 C 211.3284,-16.14305 201.0974,21.17189 201.0974,21.17189 L 190.7363,12.81174 C 182.8627,3.25962 174.2802,-0.14467 165.9225,0.00468 z m 0.3556,5.51415 c 16.0532,-0.503 21.9233,14.71956 21.9233,14.71922 -7.3656,4.71007 -56.1641,3.46857 -56.1641,3.46857 14.6398,-13.37026 25.8323,-17.9243 34.2408,-18.18779 z m -54.919,22.50127 c 3.513,-0.10943 6.0032,1.20066 6.0032,1.20066 L 99.5747,56.16891 c -4.2942,4.6596 -1.8412,9.9431 0.8895,13.5186 2.134,1.7016 3.8233,3.2856 3.9132,4.1356 0,0 -2.0172,-1.6535 -3.9132,-4.1356 -3.9682,-3.1644 -9.5162,-6.7148 -9.5162,-6.7148 3.3509,-29.38129 13.7045,-34.74367 20.4111,-34.95261 z M 87.1235,73.20051 c -7.8661,6.9739 -2.4013,46.9142 -2.4013,46.9147 l -17.6096,8.0044 c -2.5021,-35.3669 20.0109,-54.9191 20.0109,-54.9191 z m 93.6517,15.1195 c 58.1154,0 104.9464,46.2007 104.9467,103.1679 0,0.8226 -0.026,1.6277 -0.044,2.4457 -28.5236,42.1709 -104.4361,15.777 -148.5263,-15.2083 -41.8396,-29.4039 -57.5055,2.42 -61.3671,12.9849 -10e-5,-0.075 0,-0.1476 0,-0.2223 0,-56.9672 46.8756,-103.1679 104.9913,-103.1679 z m -12.7183,66.6144 56.8758,43.4017 c 12.6774,-21.5129 -56.8758,-43.4017 -56.8758,-43.4017 z m 95.4749,3.513 c -9.859,-0.3155 -13.6521,40.7336 -13.6521,40.7336 l 16.8983,-39.1772 c -1.1523,-1.0083 -2.2263,-1.5237 -3.2462,-1.5564 z m 37.2649,19.433 c 19.9301,-0.08 32.6847,14.0077 32.6847,14.0077 l -0.3113,7.0261 c -6.5125,0 -37.843,-12.9405 -37.843,-12.9405 l -0.9339,-7.6042 c 2.2096,-0.3428 4.3417,-0.4809 6.4035,-0.4891 z m -179.2987,22.2344 c 7.4974,-0.1862 18.0989,7.115 18.0989,7.115 93.1551,37.1508 142.4783,1.2896 142.4783,1.2896 -13.6995,34.5866 -147.9535,28.1858 -156.1749,26.9037 -8.2212,-1.2821 -15.0476,-19.2428 -10.9391,-30.7725 1.156,-3.2427 3.6031,-4.4629 6.5368,-4.5358 z m 216.6081,1.3341 c 0,0 14.2893,3.6518 6.2256,6.1812 l -6.2256,-6.1812 z m -36.8203,2.4902 c 12.0913,5.4956 29.0828,7.6042 29.0828,7.6042 l -4.1357,6.7593 c -9.764,-2.607 -19.561,-4.2212 -26.2366,-5.1584 0.5651,-3.0254 0.9617,-6.1049 1.2895,-9.2051 z m -240.8436,8.2713 c 2.569,0.012 5.2067,0.2405 7.96,0.7115 l -1.1563,10.4057 c 0,0 -39.0225,17.7876 -47.137,17.7876 l -0.4004,-9.6498 c 0,0 15.9006,-19.3646 40.7337,-19.255 z m 243.0672,5.3807 c 27.3901,-0.1096 44.9135,19.255 44.9135,19.255 l -0.4446,9.6498 c -8.9516,0 -51.9843,-17.7431 -51.9843,-17.7431 l -1.2896,-10.4502 c 3.0367,-0.471 5.9714,-0.7002 8.805,-0.7115 z m -26.1478,10.9838 c -15.318,19.7068 -111.9273,49.8467 -114.2852,51.0059 -2.3579,1.1592 -17.6541,-5.8042 -17.6541,-13.9188 0,-8.1146 8.2267,-13.9188 8.2267,-13.9188 20.0292,10.433 123.7126,-23.1683 123.7126,-23.1683 z m -207.0473,12.0956 c 1.6406,3.5581 3.4951,6.9992 5.4697,10.3612 -21.8324,4.2379 -47.5947,12.0471 -41.7563,24.8582 l -0.4003,0.667 -10.0499,-18.0544 c 0,0 34.4649,-4.7729 46.7368,-17.832 z m 219.7653,2.3568 c 0.098,0.1453 0.1637,0.3011 0.267,0.4447 -0.1366,-0.053 -0.2637,-0.1263 -0.4003,-0.1779 0.044,-0.089 0.089,-0.1774 0.1338,-0.2668 z m -276.1518,1.5564 -7.7377,8.4936 c -10.0482,-3.4777 7.7377,-8.4936 7.7377,-8.4936 z m 340.8986,5.4252 c 0,0 19.5758,5.0159 8.4937,8.4936 l -8.4937,-8.4936 z m -264.2341,2.7571 c 3.2606,0.013 6.644,0.2513 10.1388,0.756 l -1.4675,11.2061 c 0,0 -49.5096,19.0327 -59.8109,19.0327 l -0.489,-10.3612 c 0,0 20.1075,-20.7514 51.6286,-20.6336 z m 172.4059,0.044 c -6.7556,17.772 10.0499,65.4582 10.0499,65.4582 0,0 -8.7354,-12.4241 -15.2083,-34.0631 -6.473,-21.6391 5.1584,-31.3951 5.1584,-31.3951 z m 45.0914,2.2679 c 16.1383,6.3378 36.0642,8.8049 36.0642,8.8049 l -14.0965,27.9265 c -1.5985,-5.7569 -3.9037,-11.5989 -7.0707,-17.3429 -4.1922,-7.605 -9.3329,-14.1464 -14.897,-19.3885 z m -165.7356,27.4373 c 2.5689,0.012 5.2067,0.2406 7.9599,0.7115 l -1.1563,10.4502 c 0,0 -39.0224,17.7432 -47.1369,17.7432 l -0.3559,-9.6498 c 0,0 15.8558,-19.3646 40.6892,-19.2551 z m 172.8061,1.3786 c 0.3687,-0.019 0.728,-0.01 1.1117,0 1.4171,0.026 2.916,0.2529 4.4915,0.756 6.3504,14.3056 4.2245,27.793 4.2245,27.793 0,0 -2.806,-11.9558 -8.1378,-18.0099 -5.332,-6.0538 -10.3167,-7.6931 -10.3167,-7.6931 -0.6653,0.5059 3.0967,-2.5555 8.6268,-2.846 z m -283.5782,3.602 -9.7831,9.0716 c -12.7539,-3.728 9.7831,-9.0716 9.7831,-9.0716 z m 182.3225,16.8982 c 0.5259,-0.014 1.0688,-0.021 1.6453,0 18.4599,0.6836 23.2573,9.6053 23.2573,9.6053 0,0 -15.0526,-3.4463 -23.2573,-0.7116 -8.2042,2.7349 -10.9391,7.5153 -10.9391,7.5153 0.6621,1.3247 -7.0081,-15.9492 9.2938,-16.409 z m -66.0362,3.4241 c 9.7179,38.1966 90.2273,86.1807 90.2273,86.1807 0,0 -27.7269,-5.6924 -62.4343,-29.2605 -34.7073,-23.5681 -27.793,-56.9202 -27.793,-56.9202 z m -52.0288,7.115 -7.7375,8.4936 c -10.0483,-3.4777 7.7375,-8.4936 7.7375,-8.4936 z" style="color:#000000;fill:#000000;fill-opacity:1;stroke:none;stroke-width:7;marker:none;visibility:visible;display:inline;overflow:visible;enable-background:accumulate"/>
</svg>