<?xml version="1.0" encoding="UTF-8" standalone="no"?>
<svg xmlns:svg="http://www.w3.org/2000/svg" xmlns="http://www.w3.org/2000/svg" version="1.0" width="372" height="382">
  <defs id="defs4"/>
  <path d="M 306.40662,200.20963 C 305.90055,203.77908 305.17122,207.27812 304.28162,210.70963 L 328.06287,229.33463 L 297.90662,228.14713 C 290.89285,242.68082 280.29869,255.1574 267.28162,264.45963 L 273.53162,293.99088 L 251.21912,273.70963 C 239.21901,279.15088 225.90353,282.20963 211.87537,282.20963 C 209.33564,282.20963 206.8333,282.12387 204.34412,281.92838 L 190.18787,308.49088 L 186.12537,278.67838 C 182.76691,277.7373 179.48124,276.62227 176.28162,275.33463 L 143.59412,331.95963 C 164.31931,341.72638 187.45893,347.20963 211.87537,347.20963 C 224.50799,347.20963 236.80036,345.72335 248.59412,342.95963 C 249.65314,325.01749 259.45798,307.90472 276.25037,298.20963 C 293.04105,288.51552 312.77715,288.5644 328.84412,296.61588 C 352.95814,270.96443 368.71335,237.37114 371.81287,200.20963 L 306.40662,200.20963 z" id="path1" style="fill:#7eb75c"/>
  <path d="M 120.21912,54.95963 C 90.905849,75.39526 68.767679,105.37518 58.219119,140.36588 C 73.227269,150.25421 83.156619,167.31997 83.156619,186.70963 C 83.156619,206.09929 73.227269,223.16505 58.219119,233.05338 C 68.767679,268.04408 90.905849,298.02399 120.21912,318.45963 L 152.93787,261.83463 C 150.13307,259.63008 147.44634,257.27124 144.90662,254.77213 L 117.03162,266.02213 L 133.06287,240.61588 C 124.13647,227.60068 118.36617,212.26702 116.81287,195.70963 L 88.281619,186.45963 L 116.84412,177.33463 C 118.46361,160.77299 124.31809,145.4512 133.31287,132.45963 L 117.43787,107.02213 L 145.18787,118.36588 C 147.6435,115.9693 150.23685,113.70761 152.93787,111.58463 L 120.21912,54.95963 z" id="path2" style="fill:#f2ec64"/>
  <path d="M 211.87537,26.20963 C 187.45893,26.20963 164.31931,31.69288 143.59412,41.45963 L 176.28162,98.08463 C 179.62984,96.73719 183.0725,95.58324 186.59412,94.61588 L 190.78162,64.89713 L 204.75037,91.45963 C 207.10695,91.28464 209.47376,91.20963 211.87537,91.20963 C 226.08718,91.20963 239.56586,94.35205 251.68787,99.92838 L 274.06287,79.80338 L 267.65662,109.24088 C 280.64837,118.62166 291.21338,131.16625 298.15662,145.77213 L 328.28162,144.74088 L 304.40662,163.20963 C 305.23571,166.48114 305.92517,169.81378 306.40662,173.20963 L 371.81287,173.20963 C 368.71335,136.04812 352.95814,102.45483 328.84412,76.80338 C 312.77715,84.85486 293.04105,84.90373 276.25037,75.20963 C 259.45797,65.51453 249.65314,48.40177 248.59412,30.45963 C 236.80036,27.69592 224.50799,26.20963 211.87537,26.20963 z" id="path3" style="fill:#cdd00a"/>
  <path d="M 260.58136,28.24484 C 263.80171,27.46796 268.28095,25.72703 270.20937,27.07686 C 280.59443,66.80739 302.20865,61.57537 316.48699,59.55957 C 333.39787,57.17211 350.12811,50.35369 362.41736,70.13461 C 359.65288,50.22652 348.46563,29.10089 332.3969,13.85017 C 323.37104,5.28379 296.69899,-15.54954 272.29282,21.80512 C 269.65163,22.34684 262.56871,23.39123 260.86547,25.59319 L 260.58136,28.24484 z" id="path4" style="fill:#7eb75c"/>
  <path d="M 273.92894,24.83463 C 318.47865,25.66537 344.60322,43.53558 357.00037,59.33463 C 350.45503,38.37892 337.29556,17.79246 317.90662,6.99088 C 299.49662,-3.26533 283.58368,8.76994 273.92894,24.83463 z" id="path5" style="fill:#f2ec64"/>
  <path d="M 50.304969,223.76222 C 48.021999,221.36176 44.274689,218.35309 44.479459,216.00811 C 73.694579,187.14912 58.356409,171.04667 49.471499,159.68916 C 38.948459,146.23764 24.678419,135.15804 35.664569,114.62477 C 19.805899,126.97293 7.104194,147.22419 1.931048,168.76547 C -0.974725,180.86529 -5.680892,214.38063 38.872279,216.83966 C 40.662019,218.85614 45.107939,224.46793 47.866519,224.842 L 50.304969,223.76222 z" id="path6" style="fill:#cdd00a"/>
  <path d="M 40.677849,213.90798 C 19.122439,174.91143 21.536209,143.35179 29.020009,124.71601 C 14.144504,140.8623 2.895841,162.55197 3.235869,184.74407 C 3.55873,205.8157 21.938049,213.57908 40.677849,213.90798 z" id="path7" style="fill:#7eb75c"/>
  <path d="M 324.75306,308.13524 C 323.81568,311.31258 323.08375,316.06218 320.95056,317.05733 C 281.35038,306.18579 275.07433,327.52026 269.68089,340.89357 C 263.29306,356.73255 260.83286,374.63057 237.55746,375.38292 C 256.18061,382.94285 280.06956,383.81722 301.31144,377.52666 C 313.24307,373.99322 344.62129,361.31121 324.47429,321.49752 C 325.32574,318.93932 327.96274,312.28314 326.9074,309.70711 L 324.75306,308.13524 z" id="path8" style="fill:#f2ec64"/>
  <path d="M 321.0326,321.39969 C 298.0383,359.5655 269.49996,373.25493 249.61901,376.09166 C 271.03986,380.90108 295.44799,379.79787 314.4969,368.40735 C 332.58404,357.59193 330.11766,337.79328 321.0326,321.39969 z" id="path9" style="fill:#cdd00a"/>
</svg>