<?xml version="1.0" encoding="UTF-8" standalone="no"?>
<svg
   xmlns:dc="http://purl.org/dc/elements/1.1/"
   xmlns:cc="http://creativecommons.org/ns#"
   xmlns:rdf="http://www.w3.org/1999/02/22-rdf-syntax-ns#"
   xmlns:svg="http://www.w3.org/2000/svg"
   xmlns="http://www.w3.org/2000/svg"
   xmlns:sodipodi="http://sodipodi.sourceforge.net/DTD/sodipodi-0.dtd"
   xmlns:inkscape="http://www.inkscape.org/namespaces/inkscape"
   version="1.0"
   width="162.284"
   height="164.153"
   id="svg2"
   inkscape:version="0.48.3.1 r9886"
   sodipodi:docname="kubuntu.svg">
  <metadata
     id="metadata20">
    <rdf:RDF>
      <cc:Work
         rdf:about="">
        <dc:format>image/svg+xml</dc:format>
        <dc:type
           rdf:resource="http://purl.org/dc/dcmitype/StillImage" />
      </cc:Work>
    </rdf:RDF>
  </metadata>
  <sodipodi:namedview
     pagecolor="#ffffff"
     bordercolor="#666666"
     borderopacity="1"
     objecttolerance="10"
     gridtolerance="10"
     guidetolerance="10"
     inkscape:pageopacity="0"
     inkscape:pageshadow="2"
     inkscape:window-width="640"
     inkscape:window-height="480"
     id="namedview18"
     showgrid="false"
     fit-margin-top="0"
     fit-margin-left="5"
     fit-margin-right="5"
     fit-margin-bottom="0"
     showborder="false"
     inkscape:showpageshadow="false"
     inkscape:zoom="0.70153846"
     inkscape:cx="329.99925"
     inkscape:cy="82.1525"
     inkscape:window-x="0"
     inkscape:window-y="0"
     inkscape:window-maximized="0"
     inkscape:current-layer="svg2" />
  <defs
     id="defs38" />
  <g
     id="g2997"
     transform="translate(4.99925,5e-4)">
    <path
       style="fill:#0078c1"
       id="path11"
       d="m 43.16075,84.3665 0,-4.555 -7.352,-1.063 c -0.371,-1.566 -0.984,-3.031 -1.809,-4.355 l 4.445,-5.949 -3.223,-3.219 -5.953,4.441 c -1.328,-0.824 -2.789,-1.434 -4.355,-1.801 l -1.063,-7.352 -4.555,0 -1.066,7.355 c -1.563,0.367 -3.031,0.98 -4.355,1.805 l -5.953,-4.441 -3.215,3.219 4.445,5.953 c -0.824,1.328 -1.438,2.793 -1.805,4.359 l -7.346,1.064 0,4.555 7.352,1.063 c 0.371,1.563 0.984,3.031 1.809,4.355 l -4.445,5.953 3.219,3.219 5.953,-4.445 c 1.328,0.82 2.793,1.434 4.355,1.801 l 1.066,7.348 4.555,0 1.063,-7.352 c 1.566,-0.367 3.031,-0.984 4.355,-1.809 l 5.953,4.445 3.219,-3.219 -4.445,-5.953 c 0.824,-1.324 1.434,-2.793 1.801,-4.355 l 7.35,-1.067 z m -30.004,-2.269 c 0,-4.652 3.77,-8.43 8.422,-8.43 4.652,0 8.43,3.777 8.43,8.43 0,4.656 -3.777,8.426 -8.43,8.426 -4.653,0 -8.422,-3.77 -8.422,-8.426"
       inkscape:connector-curvature="0" />
    <path
       style="fill:#1c3f94"
       id="path13"
       d="m 147.84875,23.8475 0,-4.551 -7.355,-1.066 c -0.367,-1.563 -0.98,-3.031 -1.805,-4.352 l 4.445,-5.953 -3.223,-3.223 -5.949,4.449 c -1.328,-0.824 -2.793,-1.434 -4.359,-1.805 l -1.063,-7.347 -4.555,0 -1.07,7.352 c -1.559,0.371 -3.027,0.984 -4.352,1.809 l -5.953,-4.445 -3.219,3.223 4.449,5.953 c -0.824,1.324 -1.438,2.789 -1.801,4.355 l -7.352,1.063 0,4.555 7.352,1.066 c 0.367,1.563 0.984,3.027 1.809,4.352 l -4.449,5.953 3.223,3.219 5.953,-4.445 c 1.324,0.82 2.793,1.438 4.355,1.801 l 1.066,7.352 4.555,0 1.063,-7.355 c 1.566,-0.367 3.035,-0.984 4.359,-1.805 l 5.949,4.445 3.219,-3.219 -4.445,-5.957 c 0.82,-1.324 1.438,-2.793 1.801,-4.355 l 7.352,-1.069 z m -30.008,-2.266 c 0,-4.656 3.77,-8.43 8.426,-8.43 4.652,0 8.426,3.773 8.426,8.43 0,4.652 -3.773,8.422 -8.426,8.422 -4.657,0 -8.426,-3.77 -8.426,-8.422"
       inkscape:connector-curvature="0" />
    <path
       style="fill:#00bce4"
       id="path15"
       d="m 147.82875,144.8475 0,-4.555 -7.352,-1.066 c -0.371,-1.563 -0.984,-3.031 -1.809,-4.355 l 4.441,-5.949 -3.219,-3.223 -5.953,4.449 c -1.328,-0.824 -2.789,-1.438 -4.355,-1.805 l -1.066,-7.352 -4.555,0 -1.063,7.355 c -1.566,0.371 -3.031,0.984 -4.355,1.805 l -5.953,-4.438 -3.219,3.219 4.449,5.949 c -0.82,1.328 -1.438,2.793 -1.801,4.359 l -7.352,1.063 0,4.555 7.352,1.066 c 0.367,1.563 0.984,3.027 1.809,4.352 l -4.445,5.953 3.219,3.223 5.953,-4.449 c 1.328,0.824 2.793,1.438 4.355,1.801 l 1.066,7.348 4.555,0 1.063,-7.348 c 1.566,-0.371 3.027,-0.98 4.355,-1.809 l 5.949,4.445 3.219,-3.223 -4.441,-5.953 c 0.82,-1.324 1.434,-2.793 1.801,-4.355 l 7.352,-1.062 z m -30.008,-2.27 c 0,-4.656 3.77,-8.434 8.426,-8.434 4.652,0 8.43,3.777 8.43,8.434 0,4.652 -3.777,8.422 -8.43,8.422 -4.656,0 -8.426,-3.77 -8.426,-8.422"
       inkscape:connector-curvature="0" />
    <path
       style="fill:#00bce4"
       id="path17"
       d="m 55.27775,82.0975 c 0,-11.52 5.418,-21.801 13.836,-28.43 l -12.531,-21.711 c -2.938,2.055 -5.719,4.379 -8.313,6.969 -6.137,6.141 -10.781,13.363 -13.813,21.234 l 0.352,-0.258 0.848,-0.633 8.742,8.742 c 0,0 -4.141,5.547 -5,6.699 1.426,0.203 8.277,1.199 8.277,1.199 l 0,12.367 c 0,0 -6.844,0.992 -8.27,1.195 0.859,1.152 5,6.695 5,6.695 l -8.742,8.75 -1.215,-0.906 c 3.031,7.879 7.676,15.113 13.82,21.258 2.59,2.586 5.371,4.91 8.305,6.965 l 12.531,-21.711 c -8.409,-6.627 -13.827,-16.905 -13.827,-28.424"
       inkscape:connector-curvature="0" />
    <path
       style="fill:#0078c1"
       id="path19"
       d="m 134.61775,38.9255 c -0.031,-0.027 -0.059,-0.059 -0.086,-0.086 -0.41,0.168 -0.773,0.316 -0.844,0.348 -0.168,1.152 -1.227,8.484 -1.227,8.484 l -12.375,0 c 0,0 -0.988,-6.844 -1.195,-8.266 -1.152,0.863 -6.695,5.004 -6.695,5.004 l -8.75,-8.75 c 0,0 4.141,-5.539 5,-6.691 -1.422,-0.203 -8.273,-1.199 -8.273,-1.199 l 0,-5.922 -0.004,-0.176 c -2.863,-0.406 -5.777,-0.633 -8.723,-0.633 -9.137,0 -17.969,1.996 -26,5.781 l 12.539,21.711 c 4.164,-1.676 8.703,-2.594 13.461,-2.594 18.199,0 33.297,13.512 35.797,31.027 l 25.039,0 c -1.187,-14.37 -7.351,-27.726 -17.664,-38.038"
       inkscape:connector-curvature="0" />
    <path
       style="fill:#1c3f94"
       id="path21"
       d="m 100.15675,136.3945 c 0,0 6.836,-0.988 8.262,-1.199 -0.863,-1.148 -5.004,-6.691 -5.004,-6.691 l 8.75,-8.746 c 0,0 5.543,4.141 6.695,5 0.203,-1.43 1.195,-8.277 1.195,-8.277 l 12.367,0 c 0,0 1.066,7.328 1.23,8.48 0.09,0.039 0.48,0.199 0.902,0.371 0.02,-0.02 0.039,-0.039 0.063,-0.063 10.316,-10.313 16.48,-23.676 17.668,-38.055 l -25.039,0 c -2.496,17.527 -17.598,31.047 -35.801,31.047 -4.758,0 -9.301,-0.926 -13.465,-2.602 l -12.543,21.711 c 8.035,3.785 16.871,5.781 26.008,5.781 2.941,0 5.844,-0.219 8.711,-0.629 l 0,-6.128 0.001,0 z"
       inkscape:connector-curvature="0" />
  </g>
</svg>
