<?xml version="1.0" encoding="UTF-8" standalone="no"?>
<!-- Created with Inkscape (http://www.inkscape.org/) -->

<svg
   xmlns:dc="http://purl.org/dc/elements/1.1/"
   xmlns:cc="http://creativecommons.org/ns#"
   xmlns:rdf="http://www.w3.org/1999/02/22-rdf-syntax-ns#"
   xmlns:svg="http://www.w3.org/2000/svg"
   xmlns="http://www.w3.org/2000/svg"
   xmlns:sodipodi="http://sodipodi.sourceforge.net/DTD/sodipodi-0.dtd"
   xmlns:inkscape="http://www.inkscape.org/namespaces/inkscape"
   id="svg2"
   version="1.1"
   inkscape:version="0.48.3.1 r9886"
   width="260.39029"
   height="295.89743"
   sodipodi:docname="redhat.svg">
  <metadata
     id="metadata8">
    <rdf:RDF>
      <cc:Work
         rdf:about="">
        <dc:format>image/svg+xml</dc:format>
        <dc:type
           rdf:resource="http://purl.org/dc/dcmitype/StillImage" />
        <dc:title />
      </cc:Work>
    </rdf:RDF>
  </metadata>
  <defs
     id="defs6">
    <marker
       markerWidth="272"
       markerHeight="299"
       orient="auto"
       id="marker3007">
      <path
         inkscape:connector-curvature="0"
         id="path2987-3"
         d="m -136,0 0,-149.5 135.999999,0 L 136,-149.5 136,0 136,149.5 -1e-6,149.5 -136,149.5 -136,0 z m 119.582239,141.72968 c 1.14524,-0.61627 2.66284,-1.82006 3.37245,-2.67508 1.80039,-2.16934 2.73092,-1.94337 3.42758,0.83236 0.43491,1.73279 1.52406,2.56049 3.97417,3.02013 7.02457,1.31782 6.69996,3.00273 6.40708,-33.25614 l -0.26352,-32.6247 -2.77094,-1.32773 c -1.52402,-0.73025 -3.99902,-1.41116 -5.5,-1.51312 L -10.500001,74 l -0.28174,11.75 c -0.17072,7.12009 -0.68283,11.75 -1.29966,11.75 -0.55985,0 -2.44754,-0.73929 -4.19486,-1.64286 -5.19995,-2.689 -12.901,-2.15364 -18.46014,1.28331 -12.95899,8.01193 -14.76393,31.35073 -3.23038,41.77059 3.62927,3.27884 5.08307,3.95136 10.46678,4.84193 2.6524,0.43875 8.48622,-0.62633 11.08224,-2.02329 z m -10.81967,-8.79507 c -4.10022,-2.22475 -6.19261,-6.97079 -6.14336,-13.93461 0.0503,-7.11149 2.19485,-11.83536 6.34806,-13.98307 4.56719,-2.36179 8.56687,-1.90498 12.26695,1.40103 3.12961,2.79629 3.27827,3.26537 3.56538,11.25 0.25176,7.00159 -0.0277,8.85497 -1.75046,11.60697 -3.18951,5.09517 -8.93057,6.56581 -14.28657,3.65968 z m 107.38066,7.4634 c 2.94428,-2.09651 4.85677,-1.83622 4.85677,0.66101 0,0.79618 0.93763,1.44098 2.09537,1.44098 2.06389,0 2.08992,-0.27428 1.73238,-18.25 -0.42352,-21.29263 -1.34437,-24.44243 -8.16269,-27.92088 -4.4938,-2.29256 -12.68899,-2.18162 -17.95405,0.24305 -2.84619,1.31073 -3.41151,4.79978 -0.65162,4.02167 13.87703,-3.91244 20.29004,-1.36312 21.62594,8.59679 0.48193,3.59305 0.28931,4.08428 -1.82324,4.64977 -1.29915,0.34776 -3.96943,0.63844 -5.93395,0.64595 -5.57038,0.0213 -12.29817,2.76847 -15.91264,6.49766 -5.44868,5.62161 -5.21522,15.78564 0.47097,20.50476 4.00524,3.32406 14.25551,2.75527 19.65676,-1.09076 z m -13.14323,-0.60424 c -6.41795,-2.34612 -8.3365,-11.68455 -3.41222,-16.60883 3.20424,-3.20423 7.41902,-4.64576 14.47353,-4.95022 L 83.499999,118 l 0,7.18558 c 0,6.59089 -0.24358,7.43971 -2.94315,10.25633 -3.69866,3.859 -9.66544,5.77439 -13.55685,4.35186 z m -179.348299,2.94092 c 0.75402,-0.48101 1.27272,-5.7414 1.50222,-15.23469 0.28787,-11.90823 0.67164,-14.97347 2.14705,-17.14887 1.84945,-2.7269 5.31923,-4.53516 9.699029,-5.05462 2.29278,-0.27193 2.5,-0.70983 2.5,-5.28281 0,-4.03595 -0.34861,-5.05345 -1.82909,-5.33856 -3.098049,-0.59663 -6.478059,0.71664 -10.156209,3.9461 l -3.52198,3.09234 -0.63122,-3.15607 c -0.61051,-3.05257 -0.78257,-3.14626 -5.24635,-2.85679 L -122.5,96 l -0.26946,22.37409 c -0.18863,15.66269 0.0731,22.7868 0.87245,23.75 1.20399,1.45072 7.59145,1.85917 9.54871,0.6106 z m 55.598299,-0.28727 c 3.15825,-0.87709 3.74759,-1.46796 3.73469,-3.74442 -0.008,-1.48665 -0.34592,-3.153 -0.75,-3.703 -0.40754,-0.55471 -5.33446,-1 -11.06462,-1 l -10.32994,0 -2.97892,-3.33164 c -1.80514,-2.01889 -2.85722,-4.18604 -2.67006,-5.5 0.29746,-2.08835 0.86236,-2.18681 15.30885,-2.66836 l 15,-0.5 0,-7.08097 c 0,-6.12808 -0.40371,-7.73074 -3,-11.90946 -3.83086,-6.16576 -8.80056,-8.84581 -16.38224,-8.83458 -10.34283,0.0153 -18.67021,6.53781 -21.71385,17.00758 -3.82092,13.1435 1.09817,26.16886 11.60323,30.72445 4.09811,1.77716 17.65454,2.09235 23.24286,0.5404 z m -23.58333,-28.61409 c -1.54867,-1.54867 -0.44343,-4.75657 2.73333,-7.93333 4.03621,-4.0362 8.86101,-4.55573 12.88837,-1.38781 3.06276,2.40916 4.58954,7.81684 2.56853,9.09742 -1.59156,1.00846 -17.21336,1.20059 -18.19023,0.22372 z M 118.81311,141.75 c -0.19162,-1.00536 -1.39297,-1.86912 -2.82333,-2.02995 -6.02997,-0.67802 -6.91146,-1.22627 -8.00673,-4.97976 -0.64811,-2.22107 -0.96787,-10.03603 -0.78724,-19.24029 L 107.5,100 l 5.99121,-0.5 c 4.6697,-0.38971 6.06447,-0.88601 6.32333,-2.25 0.28623,-1.50823 -0.49215,-1.75 -5.63423,-1.75 C 107.74923,95.5 107,94.88278 107,89.58488 107,86.33663 106.31746,85.44095 104.40223,86.17589 103.63101,86.47184 103,87.92982 103,89.41586 c 0,3.51233 -1.87622,5.86263 -5.000001,6.2634 -3.58288,0.45967 -3.20554,3.24064 0.49675,3.66097 1.648211,0.18713 3.342391,0.86213 3.764851,1.5 0.42245,0.63787 0.48584,6.78477 0.14086,13.65977 -1.12341,22.38823 1.55016,29 11.72663,29 4.23902,0 4.96581,-0.27153 4.68402,-1.75 z M 16.005579,128.25 c 0.007,-16.65974 0.98053,-21.05762 5.63613,-25.44842 6.35459,-5.99315 15.33054,-5.29951 19.56604,1.51203 2.11661,3.40393 2.31773,5.00812 2.62485,20.93639 0.30578,15.85869 0.47863,17.25 2.14302,17.25 0.99572,0 2.08355,-0.7118 2.41739,-1.58179 1.05199,-2.74144 0.65794,-27.0819 -0.52807,-32.61899 -2.75826,-12.87735 -15.80466,-17.69629 -26.64659,-9.84243 -2.20977,1.60075 -4.2879,2.64033 -4.61806,2.31017 -0.33016,-0.33016 -0.60029,-4.97715 -0.60029,-10.32664 0,-7.82955 -0.29991,-9.84143 -1.53785,-10.31647 -0.84582,-0.32457 -1.70806,-0.0352 -1.91609,0.64301 -0.67812,2.21089 -1.55254,58.55268 -0.93375,60.16521 0.33092,0.86236 1.45352,1.56793 2.49468,1.56793 1.76852,0 1.89338,-0.93709 1.89859,-14.25 z m 26.27724,-40.39625 c 1.75093,-0.90544 5.89108,-4.43796 9.20034,-7.85004 4.42384,-4.56129 7.47301,-6.73721 11.51684,-8.21856 4.47094,-1.63781 5.88407,-2.7417 7.55275,-5.89997 2.98073,-5.64153 10.21046,-7.45436 28.42405,-7.12723 L 112.45359,59 117.75855,48.53564 C 127.87214,28.58597 132,10.88892 132,-12.52052 132,-34.3837 128.1718,-51.95283 119.47558,-70 c -29.026241,-60.23787 -95.724351,-89.00615 -158.668401,-68.43699 -38.64185,12.62756 -71.769259,46.29952 -84.089229,85.47146 -4.8749,15.49998 -6.0959,23.83783 -6.07224,41.46553 0.0226,16.84681 2.14795,31.68213 5.53825,38.65818 1.3664,2.81158 1.47193,2.84031 9.91574,2.69968 6.72282,-0.11196 10.49702,-0.81592 17.778519,-3.31604 12.55036,-4.3092 13.79929,-3.9809 21.64667,5.69012 4.31145,5.31337 14.23712,6.93661 15.90106,2.60045 0.44993,-1.17251 -0.65688,-2.94361 -3.6397,-5.82421 -5.76477,-5.56718 -10.63806,-12.51726 -11.38075,-16.23072 -1.40427,-7.02134 5.6054,-14.02528 12.63056,-12.62025 3.28991,0.65798 9.16806,5.8181 14.04465,12.32904 l 2.5807,3.44562 4.18863,-1.38238 4.18863,-1.38237 6.85438,7.43877 c 3.91063,4.24405 9.16332,8.70593 12.23066,10.38929 4.64598,2.54971 6.39508,2.94331 12.87629,2.89751 4.125,-0.0291 10.58631,-0.63958 14.35846,-1.35654 5.59359,-1.06313 7.84224,-1.06754 12.19277,-0.0239 4.33349,1.03959 6.19188,1.03958 9.90511,-7e-5 3.71417,-1.0399 5.70232,-1.03962 10.60827,10e-4 4.93585,1.04746 7.0327,1.04248 11.49203,-0.0273 3.00001,-0.71969 5.6519,-1.11121 5.89307,-0.87003 0.24117,0.24117 -0.43635,3.77071 -1.50561,7.84343 -1.06925,4.07271 -1.9485,8.78537 -1.95387,10.47256 -0.012,3.7549 -3.6001,11.53257 -8.10464,17.56763 -5.0354,6.74682 -13.88559,20.24617 -13.88559,21.18046 0,1.36483 3.90183,0.9222 7.28282,-0.82618 z M 20.999999,21.39086 C 9.780979,19.90256 2.832439,18.45173 -7.878021,15.36125 -56.424471,1.35329 -103,-29.54655 -103,-47.746 c 0,-6.03011 5.539639,-12.25635 12.999999,-14.61128 6.08509,-1.9208 18.30317,-3.23974 23.75,-2.56379 l 5.25,0.65151 0,5.43444 c 0,6.57435 1.53839,9.78192 7.10244,14.8087 10.97672,9.91681 56.81953,25.78778 65.23994,22.58635 2.25662,-0.85797 2.56478,-1.36488 1.75246,-2.88272 -0.54211,-1.01294 -1.65986,-2.40125 -2.4839,-3.08514 -0.82404,-0.68389 -2.46793,-4.15733 -3.6531,-7.71875 -3.19518,-9.60152 -4.68908,-10.37736 -33.21197,-17.2481 -11.23028,-2.7052 -20.89112,-7.43672 -25.42019,-12.44985 -3.46318,-3.83334 -3.55989,-4.15293 -3.04645,-10.0672 0.74831,-8.61959 5.48883,-27.54962 8.06296,-32.1973 1.40981,-2.54546 3.7357,-4.71678 6.66193,-6.21919 4.85958,-2.49505 2.33137,-2.44872 32.53414,-0.59622 8.53824,0.52369 11.05693,0.30106 16.85533,-1.48988 12.80923,-3.95637 26.26267,-2.12125 33.6986,4.59667 4.76651,4.30625 9.78451,13.02493 15.61073,27.12331 9.70972,23.49572 11.61678,34.9517 7.33883,44.08531 -1.3095,2.79582 -2.09184,5.37237 -1.73854,5.72567 1.1379,1.1379 7.36149,-4.41017 9.13163,-8.14048 2.21886,-4.67588 3.39677,-5.03439 9.77797,-2.97602 10.80181,3.48433 19.282631,9.71924 22.978441,16.89324 2.73216,5.30343 2.21304,15.10435 -1.16984,22.08672 -4.78094,9.86799 -16.069391,18.49499 -30.557741,23.3532 -13.57849,4.55312 -36.51853,6.28559 -53.46367,4.03766 z m -47.20951,-98.89285 c 1.77918,-1.31458 5.62805,-2.37381 11.20951,-3.0849 12.90407,-1.64402 16.63566,-4.14182 11.3531,-7.59938 -2.34126,-1.53241 -4.57676,-1.77501 -14.41255,-1.5641 -11.54022,0.24747 -11.67777,0.22335 -15.81397,-2.7729 -4.385,-3.17648 -7.1402,-2.98956 -8.50893,0.57727 -1.34584,3.50721 -0.40775,5.78766 4.52741,11.00586 5.59827,5.91935 7.51963,6.4866 11.64543,3.43815 z m 61.95951,-21.98705 c 10.7137,-6.53228 -5.83759,-15.1692 -21,-10.95838 -5.20909,1.44663 -4.68591,2.94742 1.02749,2.94742 5.87732,0 9.97623,2.38689 8.06128,4.69427 -0.69112,0.83274 -2.31465,1.91636 -3.60785,2.40803 -4.03259,1.53319 -1.4022,2.89786 5.5781,2.89396 4.90521,-0.003 7.55838,-0.5326 9.94098,-1.9853 z m -9.91498,157.57435 c 3.24976,-1.68051 5.68414,-5.79003 4.79793,-8.09945 -0.57012,-1.4857 -0.97432,-1.438 -4.08019,0.48153 l -3.44738,2.1306 -4.49783,-2.04899 c -5.3117,-2.41977 -7.91988,-2.58252 -9.56768,-0.59704 -1.94193,2.33988 -0.80718,4.91077 2.46617,5.58737 1.64668,0.34037 4.34396,1.35275 5.99396,2.24973 3.73533,2.03061 4.90103,2.07204 8.33502,0.29625 z"
         style="fill:#000000" />
    </marker>
  </defs>
  <sodipodi:namedview
     pagecolor="#ffffff"
     bordercolor="#666666"
     borderopacity="1"
     objecttolerance="10"
     gridtolerance="10"
     guidetolerance="10"
     inkscape:pageopacity="0"
     inkscape:pageshadow="2"
     inkscape:window-width="1280"
     inkscape:window-height="954"
     id="namedview4"
     showgrid="false"
     showborder="false"
     inkscape:showpageshadow="false"
     fit-margin-top="0"
     fit-margin-left="0"
     fit-margin-right="0"
     fit-margin-bottom="0"
     inkscape:zoom="1.61"
     inkscape:cx="132.03437"
     inkscape:cy="101.7377"
     inkscape:window-x="-3"
     inkscape:window-y="-3"
     inkscape:window-maximized="1"
     inkscape:current-layer="g3802" />
  <g
     id="g3802"
     transform="translate(324.0025,-236.3057)">
    <path
       style="fill:#ffffff;fill-opacity:0"
       d="M 0,149.5 0,0 136,0 272,0 272,149.5 272,299 136,299 0,299 0,149.5 z"
       id="path3818"
       inkscape:connector-curvature="0" />
    <g
       id="g3784">
      <path
         sodipodi:nodetypes="sscscssssssssscsssscccssscssccssssssssssscsscccsssssssssssssscssssssssssssscssssssssssssscssscssssssscsssssssssscss"
         inkscape:connector-curvature="0"
         id="path3814"
         d="m -313.85667,530.73896 c -0.79938,-0.9632 -1.06108,-8.08731 -0.87245,-23.75 l 0.26947,-22.37409 4.75,-0.30479 c 4.02026,-0.25797 4.75235,-0.0275 4.76531,1.5 0.008,0.99263 0.4313,2.46246 0.93972,3.26628 0.76363,1.20728 1.27687,1.01341 2.9508,-1.11464 2.40132,-3.0528 6.97783,-5.142 10.24922,-4.67884 2.103,0.29774 2.34495,0.84787 2.34495,5.33199 0,4.5876 -0.20621,5.02446 -2.5,5.29651 -4.37981,0.51946 -7.84959,2.32772 -9.69904,5.05462 -1.47541,2.1754 -1.85918,5.24064 -2.14705,17.14887 -0.2295,9.49329 -0.7482,14.75368 -1.50222,15.23469 -1.95726,1.24857 -8.34472,0.84012 -9.54871,-0.6106 z m 41.90416,-0.21707 c -10.50507,-4.55559 -15.42416,-17.58095 -11.60324,-30.72445 3.04364,-10.46977 11.37102,-16.99227 21.71385,-17.00758 7.53999,-0.0112 12.55502,2.6741 16.32183,8.73941 2.51531,4.05015 2.9483,5.76904 3,11.90946 l 0.0604,7.17614 -15.25,0.27605 -15.25,0.27604 0,2.45818 c 0,1.352 1.31355,3.92778 2.919,5.72395 2.91174,3.25765 2.94365,3.26599 12.82584,3.34913 5.44876,0.0458 10.43521,0.4099 11.081,0.80901 0.64578,0.39912 1.17416,2.02796 1.17416,3.61965 0,2.49235 -0.52044,3.03851 -3.75,3.93541 -5.58833,1.55195 -19.14476,1.23676 -23.24286,-0.5404 z m 17.84975,-28.29741 c 2.02101,-1.28058 0.49423,-6.68826 -2.56853,-9.09742 -4.02736,-3.16792 -8.85216,-2.64839 -12.88836,1.38781 -3.17676,3.17676 -4.28201,6.38466 -2.73334,7.93333 0.97687,0.97687 16.59867,0.78474 18.19023,-0.22372 z m 27.60049,28.02747 c -7.49256,-4.56911 -10.92113,-11.73991 -10.89461,-22.78593 0.0342,-14.25268 8.6043,-24.45397 20.63458,-24.56207 3.12606,-0.0281 6.72745,0.63779 8.55179,1.5812 1.73335,0.89634 3.60961,1.62972 4.16946,1.62972 0.61683,0 1.12894,-4.62991 1.29966,-11.75 l 0.28174,-11.75 2.72906,0.1854 c 1.50098,0.10196 3.97598,0.78287 5.5,1.51312 l 2.77094,1.32773 0.26351,32.61671 0.26351,32.61671 -2.1622,0.56543 c -3.85103,1.00707 -7.84078,-0.38113 -8.4862,-2.95269 -0.6941,-2.76553 -1.62584,-2.98438 -3.43334,-0.80647 -3.85864,4.64937 -15.74724,6.0719 -21.4879,2.57114 z m 16.97706,-8.11215 c 1.41055,-0.5363 3.48717,-2.4488 4.6147,-4.25 1.72271,-2.752 2.00222,-4.60538 1.75046,-11.60697 -0.28711,-7.98463 -0.43577,-8.45371 -3.56538,-11.25 -3.70008,-3.30601 -7.69976,-3.76282 -12.26695,-1.40103 -4.1273,2.13431 -6.29094,6.87268 -6.38496,13.98307 -0.15202,11.49657 6.87713,17.93721 15.85213,14.52493 z m 78.98587,8.14763 c -4.00154,-2.51553 -5.81278,-6.99821 -5.16168,-12.77474 0.9191,-8.15427 9.73846,-14.39782 20.33772,-14.39782 6.1449,0 7.40421,-0.74147 7.39991,-4.35699 -0.005,-4.14869 -3.31583,-9.42864 -6.74672,-10.75912 -2.55672,-0.99148 -7.94007,-0.71716 -14.49954,0.73885 -2.02038,0.44846 -2.75,0.2241 -2.75,-0.84565 0,-1.90586 4.23808,-3.78108 10.11971,-4.47767 6.1943,-0.73363 9.11766,0.0921 13.28723,3.75302 4.59642,4.0357 5.59306,9.11362 5.59306,28.49678 0,13.47077 -0.20422,15.45078 -1.59362,15.45078 -0.87649,0 -1.82897,-0.9 -2.11663,-2 -0.66962,-2.56063 -1.75235,-2.51885 -5.59284,0.21582 -4.38998,3.12594 -14.02376,3.63025 -18.2766,0.95674 z m 12.63654,-2.17181 c 1.95626,-0.54345 4.88126,-2.36993 6.5,-4.05884 2.69957,-2.81662 2.94315,-3.66544 2.94315,-10.25633 l 0,-7.18558 -5.43869,0.23472 c -11.50375,0.49647 -17.06131,4.47941 -17.06131,12.22733 0,3.58981 0.52756,5.16929 2.25,6.73636 3.70599,3.37168 5.54625,3.76374 10.80685,2.30234 z m 33.102542,2.39834 c -3.76586,-2.63772 -4.38008,-5.99774 -4.27738,-23.39909 0.0536,-9.075 -0.23694,-17.0219 -0.64556,-17.65977 -0.40862,-0.63787 -2.09149,-1.31287 -3.7397,-1.5 -1.8459,-0.20957 -2.99675,-0.91628 -2.99675,-1.84023 0,-0.92395 1.15085,-1.63066 2.99675,-1.84023 3.57572,-0.40597 4.46754,-1.58033 4.48794,-5.90977 0.012,-2.54601 0.43608,-3.25 1.95781,-3.25 1.5704,0 2.00141,0.81413 2.25,4.25 l 0.3075,4.25 6.31382,0.29937 c 5.31369,0.25196 6.26271,0.56876 5.99121,2 -0.24752,1.30483 -1.71699,1.817 -6.31382,2.20063 l -5.99121,0.5 -0.30419,15.5 c -0.18063,9.20426 0.13913,17.01922 0.78724,19.24029 1.09527,3.75349 1.97676,4.30174 8.00673,4.97976 1.43036,0.16083 2.63171,1.02459 2.82333,2.02995 0.28055,1.472 -0.43706,1.75 -4.51728,1.75 -2.82927,0 -5.80334,-0.66717 -7.13644,-1.60091 z m -95.308402,-0.64909 c -0.34173,-2.86674 0.40314,-60.30904 0.79043,-60.95633 0.23245,-0.38848 1.08322,-0.45283 1.89061,-0.14301 1.1514,0.44184 1.46797,2.66082 1.46797,10.28966 0,5.34949 0.27013,9.99648 0.60029,10.32664 0.33016,0.33016 2.40829,-0.70942 4.61806,-2.31017 10.84193,-7.85386 23.00727,-3.91598 25.76553,8.96137 1.18601,5.53709 2.46112,30.75861 1.40913,33.50005 -0.33384,0.86999 -1.42167,1.58179 -2.41739,1.58179 -1.66439,0 -1.83724,-1.39131 -2.14302,-17.25 -0.30712,-15.92827 -0.50824,-17.53246 -2.62485,-20.93639 -4.2355,-6.81154 -13.21145,-7.50518 -19.56604,-1.51203 -4.6556,4.3908 -5.62961,8.78868 -5.63613,25.44842 -0.005,13.58147 -0.0994,14.25 -2.00558,14.25 -1.1,0 -2.06705,-0.5625 -2.14901,-1.25 z"
         style="fill:#000000;fill-opacity:1" />
      <path
         sodipodi:nodetypes="sscsssssssscssssssssssssssssssccssssscsssssssssssssssssssssscssssssssssssssssssssscsscssssss"
         inkscape:connector-curvature="0"
         id="path3808"
         d="m -159.18357,468.2538 c 0,-0.37622 7.50595,-11.61635 16.28989,-24.39403 3.82919,-5.57019 5.69008,-10.68425 5.71217,-15.69804 0.007,-1.65 0.85383,-5.76397 1.88125,-9.14215 2.4307,-7.99222 1.73534,-9.20558 -4.34377,-7.57967 -5.69823,1.52404 -8.75201,1.53805 -13.67617,0.0627 -3.02349,-0.90586 -5.08256,-0.86787 -9.42514,0.1739 -4.5182,1.0839 -6.47105,1.09858 -10.45097,0.0786 -3.90623,-1.00113 -6.06488,-1.00426 -10.69088,-0.0155 -3.18801,0.68141 -9.62138,1.28015 -14.29638,1.33053 -11.09965,0.1196 -14.2149,-1.41668 -24.79229,-12.22628 l -8.29229,-8.47434 -4.08541,1.34831 c -4.52356,1.49291 -3.64067,2.07991 -10.75777,-7.15241 -6.69879,-8.68968 -17.81902,-9.30732 -21.9552,-1.21943 -1.66166,3.24919 -1.3427,9.46167 0.63822,12.43126 0.95961,1.43853 2.95735,4.42767 4.43944,6.64253 1.48208,2.21485 4.06958,5.00601 5.75,6.20257 3.35348,2.38789 3.9242,4.49197 1.47351,5.43239 -5.11308,1.96207 -11.71276,-0.89746 -15.2388,-6.60272 -1.16108,-1.87866 -3.19732,-3.9971 -4.52498,-4.70764 -3.17021,-1.69664 -10.50606,-0.91881 -18.15443,1.92495 -3.70737,1.37844 -9.30286,2.42705 -14.64383,2.74429 -8.05776,0.4786 -8.72083,0.36953 -9.77958,-1.60877 -2.2545,-4.21257 -5.1434,-20.90111 -5.73731,-33.14312 -2.5483,-52.5274 25.86084,-101.38998 72.66072,-124.97351 19.09935,-9.62461 35.83317,-13.45238 58.5,-13.38156 17.2949,0.054 28.57908,1.91396 42.9789,7.08405 28.9261,10.38559 55.412716,33.47274 70.467776,61.42349 20.69254,38.4171 20.84097,85.75218 0.39158,124.8739 l -4.45684,8.52637 -14.69071,-0.0104 c -12.183186,-0.009 -15.614966,0.3282 -20.105626,1.97363 -2.97821,1.09124 -5.79071,2.77158 -6.25,3.73408 -0.4593,0.9625 -1.18529,2.4799 -1.61332,3.372 -0.42804,0.8921 -3.24054,2.54023 -6.25,3.66252 -4.03041,1.50302 -7.28056,3.85984 -12.33847,8.94713 -3.77669,3.79863 -7.96848,7.32549 -9.3151,7.83747 -2.53263,0.96286 -5.31819,1.23677 -5.31819,0.5229 z m 22.5,-67.06758 c 12.00499,-1.95744 18.59929,-3.9932 27,-8.3353 22.079326,-11.41222 29.506966,-34.56486 15.337626,-47.80885 -6.085286,-5.68788 -20.826656,-12.366 -24.329636,-11.02178 -0.7797,0.2992 -2.32777,2.32802 -3.44017,4.5085 -2.19536,4.30327 -7.53735,8.80028 -8.53544,7.18534 -0.33441,-0.54109 0.38098,-2.91174 1.58975,-5.2681 4.14785,-8.08574 2.45879,-19.14468 -6.30544,-41.2843 -5.27616,-13.32827 -11.15541,-24.16687 -15.59856,-28.75643 -7.36846,-7.61128 -21.19068,-9.84906 -34.82454,-5.63799 -7.10442,2.19433 -9.00731,2.20983 -35.21373,0.28681 -10.05926,-0.73815 -15.89391,1.05508 -19.70946,6.05753 -2.87506,3.7694 -8.18628,23.34362 -9.13064,33.65054 -0.60098,6.55913 -0.58125,6.62649 3.15117,10.75783 4.81035,5.32448 13.40696,9.40329 26.57662,12.60973 27.59132,6.71772 28.69427,7.30125 31.87681,16.86479 1.17775,3.53914 3.02208,7.23183 4.0985,8.20598 2.70212,2.44538 2.54657,5.42313 -0.29286,5.60658 -7.74888,0.50063 -20.16982,-2.3497 -36.25,-8.31858 -19.84758,-7.36732 -30.39437,-13.85427 -34.06474,-20.95198 -0.7894,-1.52652 -1.43526,-5.22099 -1.43526,-8.20993 l 0,-5.43443 -5.25,-0.63917 c -5.71774,-0.6961 -18.18071,0.61611 -23.75,2.50062 -7.60081,2.57191 -13,8.66142 -13,14.6621 0,11.73714 20.3117,30.06919 50.19953,45.30692 39.35802,20.06592 79.82187,28.59622 111.30047,23.46357 z m -96.35495,-101.96463 c -5.67078,-5.99602 -6.47945,-9.22546 -3.14505,-12.55986 2.40988,-2.40988 3.34807,-2.49045 5.05472,-0.43406 3.06657,3.69498 7.04407,4.7237 16.01645,4.14241 9.55283,-0.6189 15.3703,0.28952 17.81954,2.78259 1.48112,1.50762 1.42127,1.79224 -0.75149,3.57357 -1.40362,1.15076 -3.88231,1.93549 -6.11351,1.93549 -6.20284,0 -14.35409,1.89725 -17.23522,4.0116 -4.13171,3.0321 -6.05144,2.46309 -11.64544,-3.45174 z m 56.39945,-17.48786 c -0.31545,-0.51041 0.27365,-1.19689 1.3091,-1.52553 1.03545,-0.32864 2.64553,-1.44052 3.57797,-2.47085 1.60379,-1.77218 1.5719,-1.95978 -0.59063,-3.47447 -1.32173,-0.92578 -4.30112,-1.60115 -7.06345,-1.60115 -5.7134,0 -6.23658,-1.50078 -1.02749,-2.94742 10.3828,-2.88345 23.40545,0.45725 24.06408,6.17315 0.48309,4.19245 -4.45982,6.76576 -13.00506,6.77053 -3.68004,0.002 -6.94908,-0.41386 -7.26452,-0.92426 z m -1.5445,154.928 c -1.925,-1.05389 -4.5438,-1.93503 -5.81955,-1.95808 -1.82431,-0.033 -2.25133,-0.52231 -2,-2.29192 0.39646,-2.79156 4.89991,-3.58259 8.17587,-1.4361 3.60699,2.36339 5.94212,2.47234 9.39368,0.43827 2.70397,-1.5935 3.25,-1.66331 3.25,-0.41552 0,2.83871 -1.249,4.74075 -4.07152,6.20034 -3.60773,1.86562 -4.65501,1.80264 -8.92848,-0.53699 z"
         style="fill:#2f2e2e" />
      <path
         sodipodi:nodetypes="ssssssssssssssssssssscssssssssssssssssssssscs"
         inkscape:connector-curvature="0"
         id="path3808-5"
         d="m -136.72412,401.15528 c 12.00499,-1.95744 18.59929,-3.9932 27.00001,-8.3353 22.07933,-11.41221 29.50697,-34.56485 15.33763,-47.80884 -6.08529,-5.68788 -20.82667,-12.366 -24.32965,-11.02178 -0.7797,0.2992 -2.32777,2.32802 -3.44017,4.5085 -2.19536,4.30327 -7.53735,8.80028 -8.53544,7.18534 -0.33441,-0.54109 0.38098,-2.91174 1.58975,-5.2681 4.14785,-8.08574 2.45879,-19.14468 -6.30544,-41.2843 -5.27616,-13.32827 -11.15541,-24.16687 -15.59856,-28.75643 -7.36845,-7.61128 -21.19067,-9.84906 -34.82453,-5.63799 -7.10442,2.19433 -9.00731,2.20983 -35.21373,0.28681 -10.05926,-0.73815 -15.89391,1.05508 -19.70946,6.05753 -2.87506,3.7694 -8.18628,23.34362 -9.13064,33.65054 -0.60098,6.55913 -0.58125,6.62649 3.15117,10.75783 4.81035,5.32448 13.40696,9.40329 26.57662,12.60973 27.59132,6.71772 28.69427,7.30125 31.87681,16.86479 1.17775,3.53914 3.02208,7.23183 4.0985,8.20598 2.70212,2.44538 2.54657,5.42313 -0.29286,5.60658 -7.74888,0.50063 -20.16982,-2.3497 -36.25,-8.31858 -19.84758,-7.36732 -30.39437,-13.85427 -34.06474,-20.95198 -0.7894,-1.52652 -1.43526,-5.22099 -1.43526,-8.20993 l 0,-5.43443 -5.25,-0.63917 c -5.71774,-0.6961 -18.18071,0.61611 -23.75,2.50062 -7.60081,2.57191 -13,8.66142 -13,14.6621 0,11.73714 20.3117,30.06919 50.19953,45.30692 39.35802,20.06591 79.82187,28.59621 111.30046,23.46356 z m -96.35494,-101.96462 c -5.67078,-5.99602 -6.47945,-9.22546 -3.14505,-12.55986 2.40988,-2.40988 3.34807,-2.49045 5.05472,-0.43406 3.06657,3.69498 7.04407,4.7237 16.01645,4.14241 9.55283,-0.6189 15.3703,0.28952 17.81954,2.78259 1.48112,1.50762 1.42127,1.79224 -0.75149,3.57357 -1.40362,1.15076 -3.88231,1.93549 -6.11351,1.93549 -6.20284,0 -14.35409,1.89725 -17.23522,4.0116 -4.13171,3.0321 -6.05144,2.46309 -11.64544,-3.45174 z m 56.39945,-17.48786 c -0.31545,-0.51041 0.27365,-1.19689 1.3091,-1.52553 1.03545,-0.32864 2.64553,-1.44052 3.57797,-2.47085 1.60379,-1.77218 1.5719,-1.95978 -0.59063,-3.47447 -1.32173,-0.92578 -4.30112,-1.60115 -7.06345,-1.60115 -5.7134,0 -6.23658,-1.50078 -1.02749,-2.94742 10.3828,-2.88345 23.40545,0.45725 24.06407,6.17315 0.48309,4.19245 -4.45981,6.76576 -13.00505,6.77053 -3.68004,0.002 -6.94908,-0.41386 -7.26452,-0.92426 z"
         style="fill:#ff2e2e;fill-opacity:1" />
    </g>
  </g>
</svg>
