<?xml version="1.0" encoding="UTF-8" standalone="no"?>
<!-- Generator: Adobe Illustrator 12.0.0, SVG Export Plug-In . SVG Version: 6.00 Build 51448)  -->

<svg
   xmlns:dc="http://purl.org/dc/elements/1.1/"
   xmlns:cc="http://creativecommons.org/ns#"
   xmlns:rdf="http://www.w3.org/1999/02/22-rdf-syntax-ns#"
   xmlns:svg="http://www.w3.org/2000/svg"
   xmlns="http://www.w3.org/2000/svg"
   xmlns:xlink="http://www.w3.org/1999/xlink"
   xmlns:sodipodi="http://sodipodi.sourceforge.net/DTD/sodipodi-0.dtd"
   xmlns:inkscape="http://www.inkscape.org/namespaces/inkscape"
   version="1.1"
   width="173.22604"
   height="152.96626"
   viewBox="0 0 173.22604 152.96626"
   overflow="visible"
   enable-background="new 0 0 812.044 152.966"
   xml:space="preserve"
   id="svg2"
   inkscape:version="0.48.3.1 r9886"
   sodipodi:docname="windows.svg"
   style="overflow:visible"><metadata
   id="metadata502"><rdf:RDF><cc:Work
       rdf:about=""><dc:format>image/svg+xml</dc:format><dc:type
         rdf:resource="http://purl.org/dc/dcmitype/StillImage" /></cc:Work></rdf:RDF></metadata><defs
   id="defs500" /><sodipodi:namedview
   pagecolor="#ffffff"
   bordercolor="#666666"
   borderopacity="1"
   objecttolerance="10"
   gridtolerance="10"
   guidetolerance="10"
   inkscape:pageopacity="0"
   inkscape:pageshadow="2"
   inkscape:window-width="640"
   inkscape:window-height="480"
   id="namedview498"
   showgrid="false"
   fit-margin-top="0"
   fit-margin-left="0"
   fit-margin-right="0"
   fit-margin-bottom="0"
   showborder="false"
   inkscape:showpageshadow="false"
   inkscape:zoom="0.56154592"
   inkscape:cx="406.02292"
   inkscape:cy="76.482627"
   inkscape:window-x="0"
   inkscape:window-y="0"
   inkscape:window-maximized="0"
   inkscape:current-layer="svg2" />

<g
   id="flag"
   transform="translate(9.1344686e-4,6.3548153e-4)">
	<g
   id="g50">
		<path
   d="M 39.674,133.092"
   id="path52"
   inkscape:connector-curvature="0"
   style="fill:none" />
	</g>
	<g
   id="g54">
		<g
   id="g56">
			<path
   d="m 170.407,21.106 c -32.996,13.644 -48.867,5.999 -63.164,-3.624 0.033,-0.126 0.092,-0.37 -0.004,-0.604 14.297,9.625 30.486,17.371 63.48,3.729 -0.219,0.201 -0.219,0.301 -0.312,0.499 z"
   id="path58"
   inkscape:connector-curvature="0"
   style="fill:#83b641" />
			<polygon
   clip-rule="evenodd"
   points="88.544,74.281 88.545,74.152 104.723,18.161 105.901,17.319 89.786,73.298 "
   id="polygon60"
   style="fill:#8aa742;fill-rule:evenodd" />
			<linearGradient
   id="XMLID_39_"
   gradientUnits="userSpaceOnUse"
   x1="99.226601"
   y1="45.670399"
   x2="97.722702"
   y2="45.239201">
				<stop
   offset="0"
   style="stop-color:#8AA742"
   id="stop63" />
				<stop
   offset="0.1"
   style="stop-color:#8AA742"
   id="stop65" />
				<stop
   offset="0.25"
   style="stop-color:#B7CA33"
   id="stop67" />
				<stop
   offset="0.4045"
   style="stop-color:#B7CA33"
   id="stop69" />
				<stop
   offset="1"
   style="stop-color:#8AA742"
   id="stop71" />
			</linearGradient>
			<path
   d="m 91,73.923 c -0.502,-0.281 -0.864,-0.847 -1.31,-0.672 l 16.155,-55.907 c 0.248,-0.111 0.873,-0.325 1.463,0.14 L 91,73.923 z"
   id="path73"
   inkscape:connector-curvature="0"
   style="fill:url(#XMLID_39_)" />
			<path
   clip-rule="evenodd"
   d="m 106.053,16.956 -0.166,0.4 -1.178,0.851 c 0.1,-0.382 0.998,-1.019 1.275,-1.212 0.052,-0.036 0.069,-0.039 0.069,-0.039 z"
   id="path75"
   inkscape:connector-curvature="0"
   style="fill:#8aa742;fill-rule:evenodd" />
			<linearGradient
   id="XMLID_40_"
   gradientUnits="userSpaceOnUse"
   x1="107.3105"
   y1="17.1113"
   x2="105.8649"
   y2="17.010201">
				<stop
   offset="0"
   style="stop-color:#83B641"
   id="stop78" />
				<stop
   offset="0.2"
   style="stop-color:#B7CA33"
   id="stop80" />
				<stop
   offset="0.525"
   style="stop-color:#B7CA33"
   id="stop82" />
				<stop
   offset="1"
   style="stop-color:#8AA742"
   id="stop84" />
			</linearGradient>
			<path
   d="m 107.252,17.444 c -0.611,-0.377 -1.162,-0.194 -1.412,-0.086 0.039,-0.119 0.145,-0.363 0.145,-0.363 0.531,-0.336 0.762,-0.352 1.258,-0.115 0.064,0.185 0.091,0.363 0.009,0.564 z"
   id="path86"
   inkscape:connector-curvature="0"
   style="fill:url(#XMLID_40_)" />
			<linearGradient
   id="XMLID_41_"
   gradientUnits="userSpaceOnUse"
   x1="170.7686"
   y1="20.5767"
   x2="171.4149"
   y2="21.6523">
				<stop
   offset="0"
   style="stop-color:#83B641"
   id="stop89" />
				<stop
   offset="1"
   style="stop-color:#595E48"
   id="stop91" />
			</linearGradient>
			<path
   clip-rule="evenodd"
   d="m 171.631,21.522 c 0,0 -0.369,-0.509 -1.252,-0.346 0.078,-0.209 0.078,-0.405 0.34,-0.57 0.531,-0.08 0.789,0.06 0.902,0.169 0.063,0.062 0.082,0.113 0.082,0.113 0.071,0.312 -0.072,0.634 -0.072,0.634 z"
   id="path93"
   inkscape:connector-curvature="0"
   style="fill:url(#XMLID_41_);fill-rule:evenodd" />
			<linearGradient
   id="XMLID_42_"
   gradientUnits="userSpaceOnUse"
   x1="172.43359"
   y1="21.408701"
   x2="172.026"
   y2="21.894501">
				<stop
   offset="0"
   style="stop-color:#8AA742"
   id="stop96" />
				<stop
   offset="1"
   style="stop-color:#595E48"
   id="stop98" />
			</linearGradient>
			<path
   clip-rule="evenodd"
   d="m 171.622,20.775 1.305,1.047 c 0.078,0.35 -0.09,0.705 -0.09,0.705 l -1.309,-1.051 c 0,0 0.164,-0.39 0.094,-0.701 z"
   id="path100"
   inkscape:connector-curvature="0"
   style="fill:url(#XMLID_42_);fill-rule:evenodd" />
			<polygon
   clip-rule="evenodd"
   points="156.481,78.712 155.243,77.619 171.555,21.402 172.887,22.461 "
   id="polygon102"
   style="fill:#595e48;fill-rule:evenodd" />
			<path
   clip-rule="evenodd"
   d="m 156.801,79.119 c 0.035,-0.321 -0.307,-0.586 -0.307,-0.586 L 172.87,22.41 c 0,0 0.26,0.234 0.33,0.403 l -16.399,56.306 z"
   id="path104"
   inkscape:connector-curvature="0"
   style="fill:#767e47;fill-rule:evenodd" />
			<linearGradient
   id="XMLID_43_"
   gradientUnits="userSpaceOnUse"
   x1="173.0415"
   y1="21.805201"
   x2="173.0415"
   y2="22.834499">
				<stop
   offset="0"
   style="stop-color:#8AA742"
   id="stop107" />
				<stop
   offset="1"
   style="stop-color:#767E47"
   id="stop109" />
			</linearGradient>
			<path
   clip-rule="evenodd"
   d="m 173.196,22.834 c 0,0 -0.059,-0.161 -0.338,-0.396 0.127,-0.528 0.043,-0.634 0.043,-0.634 l 0.025,0.017 c 0,10e-4 0.41,0.374 0.27,1.013 z"
   id="path111"
   inkscape:connector-curvature="0"
   style="fill:url(#XMLID_43_);fill-rule:evenodd" />
			<path
   clip-rule="evenodd"
   d="m 156.254,79.643 c -8.818,4.004 -17.164,6.07 -24.914,6.746 -13.383,1.52 -24.205,-1.391 -33.047,-5.734 -3.438,-1.578 -6.551,-3.364 -9.305,-5.219 l 0.149,-0.129 c 2.792,1.879 5.835,3.715 9.155,5.348 8.984,4.125 20.195,6.848 33.047,5.734 7.32,-0.828 15.406,-2.988 24.355,-6.957 0.252,0.203 0.56,0.211 0.56,0.211 z"
   id="path113"
   inkscape:connector-curvature="0"
   style="fill:#595e48;fill-rule:evenodd" />
			<linearGradient
   id="XMLID_44_"
   gradientUnits="userSpaceOnUse"
   x1="155.31979"
   y1="77.9375"
   x2="153.9102"
   y2="77.838898">
				<stop
   offset="0"
   style="stop-color:#767E47"
   id="stop116" />
				<stop
   offset="1"
   style="stop-color:#8AA742"
   id="stop118" />
			</linearGradient>
			<path
   d="m 154.473,78.599 c 0,0 -0.631,-0.566 -0.516,-1.395 0.848,-0.217 1.391,0.32 1.391,0.32 0,0 -0.156,0.763 -0.875,1.075 z"
   id="path120"
   inkscape:connector-curvature="0"
   style="fill:url(#XMLID_44_)" />
			<linearGradient
   id="XMLID_45_"
   gradientUnits="userSpaceOnUse"
   x1="155.9819"
   y1="78.063499"
   x2="155.0714"
   y2="79.074699">
				<stop
   offset="0"
   style="stop-color:#767E47"
   id="stop123" />
				<stop
   offset="1"
   style="stop-color:#595E48"
   id="stop125" />
			</linearGradient>
			<path
   clip-rule="evenodd"
   d="m 155.348,77.525 1.186,1.035 c 0,0 -0.182,0.649 -0.902,0.965 l -1.205,-1.032 c 0.722,-0.316 0.921,-0.968 0.921,-0.968 z"
   id="path127"
   inkscape:connector-curvature="0"
   style="fill:url(#XMLID_45_);fill-rule:evenodd" />
			<linearGradient
   id="XMLID_46_"
   gradientUnits="userSpaceOnUse"
   x1="90.360802"
   y1="79.838898"
   x2="154.6489"
   y2="79.838898">
				<stop
   offset="0"
   style="stop-color:#8AA742"
   id="stop130" />
				<stop
   offset="0.4"
   style="stop-color:#B7CA33"
   id="stop132" />
				<stop
   offset="1"
   style="stop-color:#8AA742"
   id="stop134" />
			</linearGradient>
			<path
   d="m 154.153,77.187 c -0.115,0.83 0.496,1.436 0.496,1.436 -33.002,13.645 -50.004,5.61 -64.288,-4.066 0.251,-0.184 0.29,-0.182 0.453,-0.764 14.282,9.678 35.87,16.459 63.339,3.394 z"
   id="path136"
   inkscape:connector-curvature="0"
   style="fill:url(#XMLID_46_)" />
			<path
   clip-rule="evenodd"
   d="m 89.144,75.365 1.227,-0.82 c 14.29,9.2 31.169,17.157 64.136,3.91 l 1.193,1.036 c -31.653,13.964 -51.903,6.187 -66.556,-4.126 z"
   id="path138"
   inkscape:connector-curvature="0"
   style="fill:#767e47;fill-rule:evenodd" />
			<path
   clip-rule="evenodd"
   d="m 156.801,79.119 c -0.164,0.301 -0.451,0.473 -0.547,0.523 -0.02,0.012 -0.033,0.012 -0.033,0.012 0,0 -0.225,0.031 -0.525,-0.164 0.645,-0.352 0.832,-1.055 0.832,-1.055 0,0 0.375,0.313 0.273,0.684 z"
   id="path140"
   inkscape:connector-curvature="0"
   style="fill:#767e47;fill-rule:evenodd" />
			<path
   clip-rule="evenodd"
   d="m 89.189,75.349 -0.147,0.121 c 0,0 -0.804,-0.434 -0.496,-1.318 0.072,0.869 0.643,1.197 0.643,1.197 z"
   id="path142"
   inkscape:connector-curvature="0"
   style="fill:#767e47;fill-rule:evenodd" />
			<linearGradient
   id="XMLID_47_"
   gradientUnits="userSpaceOnUse"
   x1="89.9692"
   y1="74.917"
   x2="88.951202"
   y2="73.786301">
				<stop
   offset="0"
   style="stop-color:#767E47"
   id="stop145" />
				<stop
   offset="0.1"
   style="stop-color:#767E47"
   id="stop147" />
				<stop
   offset="0.65"
   style="stop-color:#83B641"
   id="stop149" />
				<stop
   offset="1"
   style="stop-color:#8AA742"
   id="stop151" />
			</linearGradient>
			<path
   d="m 88.545,74.152 1.184,-0.936 c -0.069,0.902 0.711,1.277 0.711,1.277 l -1.204,0.926 c 0,0 -0.759,-0.363 -0.691,-1.267 z"
   id="path153"
   inkscape:connector-curvature="0"
   style="fill:url(#XMLID_47_)" />
			<linearGradient
   id="XMLID_48_"
   gradientUnits="userSpaceOnUse"
   x1="89.935501"
   y1="73.087402"
   x2="90.676498"
   y2="74.424103">
				<stop
   offset="0"
   style="stop-color:#8AA742"
   id="stop156" />
				<stop
   offset="0.4045"
   style="stop-color:#83B641"
   id="stop158" />
				<stop
   offset="0.8"
   style="stop-color:#8AA742"
   id="stop160" />
				<stop
   offset="1"
   style="stop-color:#8AA742"
   id="stop162" />
			</linearGradient>
			<path
   d="m 89.703,73.216 c 0.405,-0.123 0.771,0.297 1.267,0.682 -0.161,0.584 -0.303,0.484 -0.554,0.67 -0.294,-0.176 -0.788,-0.61 -0.713,-1.352 z"
   id="path164"
   inkscape:connector-curvature="0"
   style="fill:url(#XMLID_48_)" />
			<linearGradient
   id="XMLID_49_"
   gradientUnits="userSpaceOnUse"
   x1="163.58501"
   y1="49.529301"
   x2="162.0867"
   y2="49.099701">
				<stop
   offset="0"
   style="stop-color:#595E48"
   id="stop167" />
				<stop
   offset="1"
   style="stop-color:#83B641"
   id="stop169" />
			</linearGradient>
			<path
   d="m 153.997,77.314 16.332,-56.189 c 0.883,-0.163 1.305,0.337 1.305,0.337 l -16.285,56.063 c -10e-4,0 -0.653,-0.5 -1.352,-0.211 z"
   id="path171"
   inkscape:connector-curvature="0"
   style="fill:url(#XMLID_49_)" />
			<g
   id="g173">
				<defs
   id="defs175">
					<path
   id="XMLID_12_"
   d="m 107.254,17.442 c 14.297,9.621 30.156,17.29 63.152,3.648 L 154.15,77.255 c -27.541,12.922 -49.002,6.278 -63.283,-3.398 l 16.387,-56.415 z"
   inkscape:connector-curvature="0" />
				</defs>
				<clipPath
   id="XMLID_50_">
					<use
   xlink:href="#XMLID_12_"
   id="use179"
   x="0"
   y="0"
   width="812.04401"
   height="152.966" />
				</clipPath>
			</g>
		</g>
		<linearGradient
   id="XMLID_51_"
   gradientUnits="userSpaceOnUse"
   x1="159.86909"
   y1="57.839802"
   x2="100.4596"
   y2="40.804401">
			<stop
   offset="0"
   style="stop-color:#6FBC48"
   id="stop182" />
			<stop
   offset="0.3333"
   style="stop-color:#98C74F"
   id="stop184" />
			<stop
   offset="0.6666"
   style="stop-color:#80C046"
   id="stop186" />
			<stop
   offset="1"
   style="stop-color:#607D3A"
   id="stop188" />
		</linearGradient>
		<path
   d="m 170.407,21.09 c -32.996,13.642 -48.861,5.973 -63.16,-3.65 L 90.969,73.902 c 14.285,9.678 31.531,17.635 63.188,3.463 l 16.25,-56.275 z"
   id="path190"
   inkscape:connector-curvature="0"
   style="fill:url(#XMLID_51_)" />
	</g>
	<g
   id="g192">
		<g
   id="g194">
			<path
   clip-rule="evenodd"
   d="m 1.36,132.346 c 0.108,0.016 0.307,-0.078 0.307,-0.078 0.229,0.156 0.411,0.266 0.411,0.266 0,0 -0.358,0.085 -0.718,-0.188 z"
   id="path196"
   inkscape:connector-curvature="0"
   style="fill:#313c7e;fill-rule:evenodd" />
			<path
   d="m 62.57,135.236 c 0,0 0.219,0.203 0.471,0.133 l -0.989,0.586 c -0.316,0.141 -0.641,-0.082 -0.641,-0.082 l 1.159,-0.637 z"
   id="path198"
   inkscape:connector-curvature="0"
   style="fill:#313c7e" />
			<path
   d="m 1.68,132.275 c 0,0 -0.193,0.098 -0.302,0.082 l -1.085,-0.828 -0.025,-0.023 c 0.157,0.055 0.338,0.027 0.411,0.012 l 1.001,0.757 z"
   id="path200"
   inkscape:connector-curvature="0"
   style="fill:#313c7e" />
			<path
   d="m 63.125,134.428 c 0.113,0.082 0.232,0.172 0.344,0.398 -0.063,0.297 -0.311,0.449 -0.451,0.559 -0.202,0.047 -0.485,-0.145 -0.485,-0.145 0.158,-0.133 0.428,-0.324 0.592,-0.812 z"
   id="path202"
   inkscape:connector-curvature="0"
   style="fill:#2e499e" />
			<g
   id="g204">
				<g
   id="g206">
					<rect
   x="16.084"
   y="74.602997"
   clip-rule="evenodd"
   width="0.324"
   height="0.017999999"
   id="rect208"
   style="fill:#2e499e;fill-rule:evenodd" />
				</g>
			</g>
			<polygon
   clip-rule="evenodd"
   points="0.023,130.752 16.086,74.56 16.267,74.611 0.207,130.799 "
   id="polygon210"
   style="fill:#2e499e;fill-rule:evenodd" />
			<path
   clip-rule="evenodd"
   d="m 0.293,131.529 c -0.208,-0.18 -0.352,-0.488 -0.271,-0.777 l 0.193,-0.074 c -0.081,0.418 0.226,0.719 0.45,0.848 0.002,-0.001 -0.162,0.081 -0.372,0.003 z"
   id="path212"
   inkscape:connector-curvature="0"
   style="fill:#2e499e;fill-rule:evenodd" />
			<linearGradient
   id="XMLID_52_"
   gradientUnits="userSpaceOnUse"
   x1="0.18700001"
   y1="129.19141"
   x2="63.144001"
   y2="129.19141">
				<stop
   offset="0"
   style="stop-color:#76A5D8"
   id="stop215" />
				<stop
   offset="0.45"
   style="stop-color:#DAE3EC"
   id="stop217" />
				<stop
   offset="1"
   style="stop-color:#3F87C7"
   id="stop219" />
			</linearGradient>
			<path
   d="M 62.56,135.275 C 48.228,125.63 33.375,118.263 0.686,131.545 0.461,131.412 0.119,131.092 0.199,130.67 c 33.192,-14.129 48.613,-5.875 62.945,3.773 -0.146,0.512 -0.426,0.703 -0.584,0.832 z"
   id="path221"
   inkscape:connector-curvature="0"
   style="fill:url(#XMLID_52_)" />
			<path
   clip-rule="evenodd"
   d="m 1.615,132.232 c 31.464,-12.301 45.567,-5.602 59.892,3.621 -8.58,-5.523 -17.41,-9.945 -29.594,-10.02 -8.154,-0.047 -17.791,2.023 -29.851,6.699 0,10e-4 -0.249,-0.093 -0.447,-0.3 z"
   id="path223"
   inkscape:connector-curvature="0"
   style="fill:#313c7e;fill-rule:evenodd" />
			<path
   clip-rule="evenodd"
   d="m 62.577,135.271 -1.159,0.605 C 47.093,126.653 32.595,120.278 1.681,132.274 l -1.022,-0.746 c 32.689,-13.284 47.587,-5.905 61.918,3.743 z"
   id="path225"
   inkscape:connector-curvature="0"
   style="fill:#2e499e;fill-rule:evenodd" />
			<path
   clip-rule="evenodd"
   d="M 63.115,134.459 79.642,77.892 c 0.177,0.123 0.271,0.219 0.363,0.324 l -16.542,56.637 c -0.093,-0.238 -0.348,-0.394 -0.348,-0.394 z"
   id="path227"
   inkscape:connector-curvature="0"
   style="fill:#313c7e;fill-rule:evenodd" />
			<path
   clip-rule="evenodd"
   d="M 79.635,77.919 C 65.317,68.215 49.168,61.191 16.232,74.634 16.314,74.353 16.381,74.22 16.381,74.22 49.462,60.542 65.437,67.804 79.754,77.509 l -0.119,0.41 z"
   id="path229"
   inkscape:connector-curvature="0"
   style="fill:#3f87c7;fill-rule:evenodd" />
			<g
   id="g231">
				<defs
   id="defs233">
					<path
   id="XMLID_16_"
   d="M 63.135,134.475 C 48.804,124.827 33.267,117.01 0.193,130.682 L 16.238,74.603 c 33.079,-13.68 49.107,-6.4 63.426,3.303 l -16.529,56.569 z"
   inkscape:connector-curvature="0" />
				</defs>
				<clipPath
   id="XMLID_53_">
					<use
   xlink:href="#XMLID_16_"
   id="use237"
   x="0"
   y="0"
   width="812.04401"
   height="152.966" />
				</clipPath>
				<g
   clip-path="url(#XMLID_53_)"
   id="g239">
					<g
   id="g241">
						<linearGradient
   id="XMLID_54_"
   gradientUnits="userSpaceOnUse"
   x1="70.161102"
   y1="110.9561"
   x2="10.6821"
   y2="93.900703">
							<stop
   offset="0"
   style="stop-color:#2E499E"
   id="stop244" />
							<stop
   offset="0.4"
   style="stop-color:#4496D1"
   id="stop246" />
							<stop
   offset="0.725"
   style="stop-color:#A5CDED"
   id="stop248" />
							<stop
   offset="1"
   style="stop-color:#007FC4"
   id="stop250" />
						</linearGradient>
						<path
   d="M 63.141,134.596 C 48.81,124.951 33.231,117.018 0.157,130.694 L 16.352,74.127 c 33.081,-13.678 48.973,-5.938 63.29,3.766 l -16.501,56.703 z"
   id="path252"
   inkscape:connector-curvature="0"
   style="fill:url(#XMLID_54_)" />
						<path
   d="M 63.141,134.596 C 48.81,124.951 33.231,117.018 0.157,130.694 L 16.352,74.127 c 33.081,-13.678 48.973,-5.938 63.29,3.766 l -16.501,56.703 z"
   id="path254"
   inkscape:connector-curvature="0"
   style="fill:none" />
					</g>
				</g>
			</g>
			<path
   clip-rule="evenodd"
   d="m 79.749,77.505 0.027,0.016 c 0.204,0.145 0.287,0.426 0.229,0.695 l -0.012,0.035 c -0.091,-0.104 -0.186,-0.203 -0.362,-0.326 l 0.118,-0.42 z"
   id="path256"
   inkscape:connector-curvature="0"
   style="fill:#313c7e;fill-rule:evenodd" />
		</g>
		<linearGradient
   id="XMLID_55_"
   gradientUnits="userSpaceOnUse"
   x1="16.246599"
   y1="74.212402"
   x2="16.246599"
   y2="74.620598">
			<stop
   offset="0"
   style="stop-color:#76A5D8"
   id="stop259" />
			<stop
   offset="1"
   style="stop-color:#2E499E"
   id="stop261" />
		</linearGradient>
		<path
   clip-rule="evenodd"
   d="m 16.265,74.621 -0.181,-0.053 c 0.069,-0.238 0.232,-0.32 0.297,-0.348 l 0.027,-0.008 c 10e-4,0 -0.06,0.125 -0.143,0.409 z"
   id="path263"
   inkscape:connector-curvature="0"
   style="fill:url(#XMLID_55_);fill-rule:evenodd" />
	</g>
	<g
   id="g265">
		<path
   clip-rule="evenodd"
   d="M 81.828,68.497 C 66.43,57.811 47.556,51.1 19.527,65.029 l 1.146,0.809 C 51.3,53.321 67.278,60.096 80.714,68.946 l 1.114,-0.449 z"
   id="path267"
   inkscape:connector-curvature="0"
   style="fill:#d75329;fill-rule:evenodd" />
		<path
   clip-rule="evenodd"
   d="m 82.368,67.668 16.27,-56.174 c 0.176,0.12 0.262,0.236 0.355,0.34 L 82.716,68.056 C 82.623,67.82 82.368,67.668 82.368,67.668 z"
   id="path269"
   inkscape:connector-curvature="0"
   style="fill:#ab4533;fill-rule:evenodd" />
		<path
   clip-rule="evenodd"
   d="m 20.683,65.82 c 5.212,-2.138 10.039,-3.725 14.518,-4.814 1.086,-0.263 2.051,-0.501 3.197,-0.722 1.055,-0.21 2.097,-0.415 3.116,-0.565 1.597,-0.244 3.146,-0.445 4.654,-0.561 1.29,-0.102 2.545,-0.177 3.774,-0.188 1.188,-0.014 2.349,0.002 3.483,0.067 1.01,0.058 1.998,0.131 2.971,0.246 0.822,0.096 1.626,0.197 2.421,0.334 1.679,0.288 3.301,0.642 4.869,1.087 6.332,1.791 11.956,4.844 17.127,8.292 -0.034,0.016 -0.158,-0.036 -0.212,-0.065 -0.05,-0.024 -0.073,-0.026 -0.117,-0.056 -6.991,-4.432 -14.502,-8.286 -23.77,-9.423 -9.486,-1.166 -20.54,0.467 -35.433,6.378 0,0 -0.347,0.147 -0.479,0.171 -0.119,0.019 -0.097,-0.072 -0.119,-0.181 z"
   id="path271"
   inkscape:connector-curvature="0"
   style="fill:#ab4533;fill-rule:evenodd" />
		<path
   d="m 81.802,68.487 c 0,0 0.221,0.155 0.471,0.098 l -1.027,0.453 c -0.277,0.081 -0.606,-0.09 -0.606,-0.09 l 1.162,-0.461 z"
   id="path273"
   inkscape:connector-curvature="0"
   style="fill:#ab4533" />
		<path
   d="m 20.697,65.83 c 0,0 0.063,0.105 0.105,0.173 -0.101,0.014 -0.113,0.04 -0.362,-0.071 -0.033,-0.013 -0.083,-0.054 -0.124,-0.072 l -1.063,-0.836 -0.096,-0.079 c 0.145,-0.01 0.256,0.06 0.329,0.046 l 1.211,0.839 z"
   id="path275"
   inkscape:connector-curvature="0"
   style="fill:#ab4533" />
		<path
   d="m 82.379,67.67 c 0.114,0.076 0.25,0.121 0.345,0.357 -0.063,0.299 -0.317,0.449 -0.459,0.559 -0.252,0.071 -0.501,-0.123 -0.501,-0.123 0.159,-0.127 0.451,-0.307 0.615,-0.793 z"
   id="path277"
   inkscape:connector-curvature="0"
   style="fill:#d75329" />
		<path
   clip-rule="evenodd"
   d="m 98.747,11.129 0.02,0.012 c 0.201,0.144 0.285,0.426 0.227,0.693 l -0.01,0.036 C 98.89,11.765 98.83,11.661 98.646,11.522 l 0.101,-0.393 z"
   id="path279"
   inkscape:connector-curvature="0"
   style="fill:#d75329;fill-rule:evenodd" />
		<path
   clip-rule="evenodd"
   d="M 19.179,64.975 C 19.025,64.854 18.87,64.381 18.95,64.093 l 0.216,-0.075 c -0.08,0.417 0.178,0.892 0.402,1.021 10e-4,0 -0.157,0.089 -0.389,-0.064 z"
   id="path281"
   inkscape:connector-curvature="0"
   style="fill:#d75329;fill-rule:evenodd" />
		<g
   id="g283">
			<defs
   id="defs285">
				<path
   id="XMLID_20_"
   d="M 35.432,7.781 35.25,7.729 c 0.07,-0.238 0.234,-0.323 0.298,-0.35 l 0.027,-0.008 c 10e-4,10e-4 -0.06,0.126 -0.143,0.41 z"
   inkscape:connector-curvature="0" />
			</defs>
			<clipPath
   id="XMLID_56_">
				<use
   xlink:href="#XMLID_20_"
   id="use289"
   x="0"
   y="0"
   width="812.04401"
   height="152.966" />
			</clipPath>
			
				<rect
   x="35.25"
   y="7.3720002"
   clip-path="url(#XMLID_56_)"
   clip-rule="evenodd"
   width="0.32499999"
   height="0.024"
   id="rect291"
   style="fill:#faaa4f;fill-rule:evenodd" />
			
				<rect
   x="35.25"
   y="7.3959999"
   clip-path="url(#XMLID_56_)"
   clip-rule="evenodd"
   width="0.32499999"
   height="0.027000001"
   id="rect293"
   style="fill:#f6a34c;fill-rule:evenodd" />
			
				<rect
   x="35.25"
   y="7.4229999"
   clip-path="url(#XMLID_56_)"
   clip-rule="evenodd"
   width="0.32499999"
   height="0.024"
   id="rect295"
   style="fill:#f39d48;fill-rule:evenodd" />
			
				<rect
   x="35.25"
   y="7.448"
   clip-path="url(#XMLID_56_)"
   clip-rule="evenodd"
   width="0.32499999"
   height="0.027000001"
   id="rect297"
   style="fill:#f09745;fill-rule:evenodd" />
			
				<rect
   x="35.25"
   y="7.4749999"
   clip-path="url(#XMLID_56_)"
   clip-rule="evenodd"
   width="0.32499999"
   height="0.025"
   id="rect299"
   style="fill:#ed9142;fill-rule:evenodd" />
			
				<rect
   x="35.25"
   y="7.5"
   clip-path="url(#XMLID_56_)"
   clip-rule="evenodd"
   width="0.32499999"
   height="0.024"
   id="rect301"
   style="fill:#eb8c3f;fill-rule:evenodd" />
			
				<rect
   x="35.25"
   y="7.5250001"
   clip-path="url(#XMLID_56_)"
   clip-rule="evenodd"
   width="0.32499999"
   height="0.025"
   id="rect303"
   style="fill:#e8863c;fill-rule:evenodd" />
			
				<rect
   x="35.25"
   y="7.5500002"
   clip-path="url(#XMLID_56_)"
   clip-rule="evenodd"
   width="0.32499999"
   height="0.024"
   id="rect305"
   style="fill:#e68139;fill-rule:evenodd" />
			
				<rect
   x="35.25"
   y="7.5749998"
   clip-path="url(#XMLID_56_)"
   clip-rule="evenodd"
   width="0.32499999"
   height="0.025"
   id="rect307"
   style="fill:#e57b37;fill-rule:evenodd" />
			
				<rect
   x="35.25"
   y="7.5999999"
   clip-path="url(#XMLID_56_)"
   clip-rule="evenodd"
   width="0.32499999"
   height="0.025"
   id="rect309"
   style="fill:#e27634;fill-rule:evenodd" />
			
				<rect
   x="35.25"
   y="7.625"
   clip-path="url(#XMLID_56_)"
   clip-rule="evenodd"
   width="0.32499999"
   height="0.026000001"
   id="rect311"
   style="fill:#e07132;fill-rule:evenodd" />
			
				<rect
   x="35.25"
   y="7.652"
   clip-path="url(#XMLID_56_)"
   clip-rule="evenodd"
   width="0.32499999"
   height="0.025"
   id="rect313"
   style="fill:#df6b30;fill-rule:evenodd" />
			
				<rect
   x="35.25"
   y="7.677"
   clip-path="url(#XMLID_56_)"
   clip-rule="evenodd"
   width="0.32499999"
   height="0.024"
   id="rect315"
   style="fill:#dc662e;fill-rule:evenodd" />
			
				<rect
   x="35.25"
   y="7.7020001"
   clip-path="url(#XMLID_56_)"
   clip-rule="evenodd"
   width="0.32499999"
   height="0.027000001"
   id="rect317"
   style="fill:#db602c;fill-rule:evenodd" />
			
				<rect
   x="35.25"
   y="7.7290001"
   clip-path="url(#XMLID_56_)"
   clip-rule="evenodd"
   width="0.32499999"
   height="0.024"
   id="rect319"
   style="fill:#d95a2a;fill-rule:evenodd" />
			
				<rect
   x="35.25"
   y="7.7529998"
   clip-path="url(#XMLID_56_)"
   clip-rule="evenodd"
   width="0.32499999"
   height="0.027000001"
   id="rect321"
   style="fill:#d75329;fill-rule:evenodd" />
		</g>
		<linearGradient
   id="XMLID_57_"
   gradientUnits="userSpaceOnUse"
   x1="19.1108"
   y1="62.3535"
   x2="82.387199"
   y2="62.3535">
			<stop
   offset="0"
   style="stop-color:#FAAB4F"
   id="stop324" />
			<stop
   offset="0.25"
   style="stop-color:#FAAB4F"
   id="stop326" />
			<stop
   offset="0.475"
   style="stop-color:#FCC193"
   id="stop328" />
			<stop
   offset="0.525"
   style="stop-color:#FCC193"
   id="stop330" />
			<stop
   offset="0.75"
   style="stop-color:#F89C3E"
   id="stop332" />
			<stop
   offset="1"
   style="stop-color:#F89C3E"
   id="stop334" />
		</linearGradient>
		<path
   d="M 81.798,68.491 C 72.984,62.729 64.733,57.959 51.668,57.583 42.114,57.772 34.79,58.989 19.555,65.04 c -0.225,-0.128 -0.51,-0.447 -0.431,-0.866 13.191,-5.617 23.663,-8.04 32.354,-7.955 13.16,0.131 22.283,5.637 30.909,11.44 -0.146,0.508 -0.43,0.703 -0.589,0.832 z"
   id="path336"
   inkscape:connector-curvature="0"
   style="fill:url(#XMLID_57_)" />
		<path
   clip-rule="evenodd"
   d="m 35.255,7.719 0.151,0.048 -16.245,56.388 c -0.037,-0.016 -0.21,-0.062 -0.21,-0.062 L 35.255,7.719 z"
   id="path338"
   inkscape:connector-curvature="0"
   style="fill:#d75329;fill-rule:evenodd" />
		<path
   clip-rule="evenodd"
   d="M 98.641,11.559 C 84.333,1.864 68.303,-5.622 35.39,7.811 35.474,7.529 35.548,7.379 35.548,7.379 68.607,-6.288 84.455,1.442 98.766,11.141 l -0.125,0.418 z"
   id="path340"
   inkscape:connector-curvature="0"
   style="fill:#f89c3e;fill-rule:evenodd" />
		<linearGradient
   id="XMLID_58_"
   gradientUnits="userSpaceOnUse"
   x1="89.186501"
   y1="44.528801"
   x2="29.653999"
   y2="27.458099">
			<stop
   offset="0"
   style="stop-color:#CD2B2B"
   id="stop343" />
			<stop
   offset="0.4"
   style="stop-color:#F2692A"
   id="stop345" />
			<stop
   offset="0.725"
   style="stop-color:#FCB544"
   id="stop347" />
			<stop
   offset="1"
   style="stop-color:#F37237"
   id="stop349" />
		</linearGradient>
		<path
   d="M 82.392,67.68 C 73.764,61.87 64.485,56.447 51.307,56.347 42.612,56.28 32.262,58.75 19.123,64.183 L 35.406,7.761 C 68.465,-5.908 84.344,1.828 98.651,11.525 L 82.392,67.68 z"
   id="path351"
   inkscape:connector-curvature="0"
   style="fill:url(#XMLID_58_)" />
	</g>
	<g
   id="g353">
		<linearGradient
   id="XMLID_59_"
   gradientUnits="userSpaceOnUse"
   x1="137.6787"
   y1="144.4785"
   x2="137.34171"
   y2="145.7364">
			<stop
   offset="0"
   style="stop-color:#D4A52E"
   id="stop356" />
			<stop
   offset="1"
   style="stop-color:#A87C3C"
   id="stop358" />
		</linearGradient>
		<path
   clip-rule="evenodd"
   d="m 137.993,145.178 c -0.16,0.297 -0.449,0.473 -0.545,0.523 -0.021,0.012 -0.035,0.012 -0.035,0.012 0,0 -0.275,0.035 -0.525,-0.164 0.645,-0.352 0.836,-1.059 0.836,-1.059 0,0 0.372,0.317 0.269,0.688 z"
   id="path360"
   inkscape:connector-curvature="0"
   style="fill:url(#XMLID_59_);fill-rule:evenodd" />
		<path
   clip-rule="evenodd"
   d="m 137.993,145.178 c 0.039,-0.32 -0.305,-0.59 -0.305,-0.59 l 15.668,-54.613 c 0,0 0.262,0.23 0.334,0.402 l -15.697,54.801 z"
   id="path362"
   inkscape:connector-curvature="0"
   style="fill:#d4a52e;fill-rule:evenodd" />
		<linearGradient
   id="XMLID_60_"
   gradientUnits="userSpaceOnUse"
   x1="153.5293"
   y1="89.365196"
   x2="153.5293"
   y2="90.400398">
			<stop
   offset="0.0056"
   style="stop-color:#C19236"
   id="stop365" />
			<stop
   offset="1"
   style="stop-color:#D4A52E"
   id="stop367" />
		</linearGradient>
		<path
   clip-rule="evenodd"
   d="m 153.68,90.4 c 0,0 -0.051,-0.156 -0.332,-0.391 0.129,-0.531 0.039,-0.645 0.039,-0.645 l 0.025,0.016 c 0.001,0.001 0.413,0.38 0.268,1.02 z"
   id="path369"
   inkscape:connector-curvature="0"
   style="fill:url(#XMLID_60_);fill-rule:evenodd" />
		<linearGradient
   id="XMLID_61_"
   gradientUnits="userSpaceOnUse"
   x1="151.23"
   y1="88.141602"
   x2="151.8813"
   y2="89.225601">
			<stop
   offset="0.0056"
   style="stop-color:#FFCD02"
   id="stop372" />
			<stop
   offset="1"
   style="stop-color:#A87C3C"
   id="stop374" />
		</linearGradient>
		<path
   clip-rule="evenodd"
   d="m 152.118,89.084 c 0,0 -0.434,-0.527 -1.316,-0.363 0.047,-0.199 0.121,-0.441 0.402,-0.555 0.533,-0.082 0.789,0.059 0.902,0.168 0.064,0.066 0.082,0.113 0.082,0.113 0.07,0.313 -0.07,0.637 -0.07,0.637 z"
   id="path376"
   inkscape:connector-curvature="0"
   style="fill:url(#XMLID_61_);fill-rule:evenodd" />
		<linearGradient
   id="XMLID_62_"
   gradientUnits="userSpaceOnUse"
   x1="152.9268"
   y1="88.972702"
   x2="152.52811"
   y2="89.4478">
			<stop
   offset="0.0056"
   style="stop-color:#FFCD02"
   id="stop379" />
			<stop
   offset="1"
   style="stop-color:#A87C3C"
   id="stop381" />
		</linearGradient>
		<path
   clip-rule="evenodd"
   d="m 152.106,88.334 1.307,1.047 c 0.076,0.355 -0.064,0.707 -0.064,0.707 l -1.301,-1.043 c -0.001,0 0.128,-0.399 0.058,-0.711 z"
   id="path383"
   inkscape:connector-curvature="0"
   style="fill:url(#XMLID_62_);fill-rule:evenodd" />
		<polygon
   clip-rule="evenodd"
   points="137.723,144.619 137.661,144.768 136.288,143.584 152.042,88.963 153.372,90.025 "
   id="polygon385"
   style="fill:#a87c3c;fill-rule:evenodd" />
		<linearGradient
   id="XMLID_63_"
   gradientUnits="userSpaceOnUse"
   x1="136.3667"
   y1="143.90331"
   x2="134.9541"
   y2="143.8046">
			<stop
   offset="0"
   style="stop-color:#C19236"
   id="stop388" />
			<stop
   offset="1"
   style="stop-color:#FFCD02"
   id="stop390" />
		</linearGradient>
		<path
   d="m 135.516,144.564 c 0,0 -0.629,-0.563 -0.516,-1.395 0.848,-0.215 1.395,0.32 1.395,0.32 0,0 -0.156,0.759 -0.879,1.075 z"
   id="path392"
   inkscape:connector-curvature="0"
   style="fill:url(#XMLID_63_)" />
		<path
   d="m 150.856,88.775 c -33.176,11.301 -48.441,4.547 -62.754,-5.086 0.034,-0.129 0.122,-0.34 0.025,-0.578 14.313,9.633 30.143,16.211 63.076,5.055 -0.249,0.172 -0.281,0.406 -0.347,0.609 z"
   id="path394"
   inkscape:connector-curvature="0"
   style="fill:#ffcd02" />
		<polygon
   clip-rule="evenodd"
   points="69.513,140.244 69.516,140.111 85.601,84.389 86.778,83.533 70.757,139.26 "
   id="polygon396"
   style="fill:#d4a52e;fill-rule:evenodd" />
		<linearGradient
   id="XMLID_64_"
   gradientUnits="userSpaceOnUse"
   x1="80.171402"
   y1="111.6348"
   x2="78.692902"
   y2="111.2108">
			<stop
   offset="0"
   style="stop-color:#D4A52E"
   id="stop399" />
			<stop
   offset="0.1"
   style="stop-color:#D4A52E"
   id="stop401" />
			<stop
   offset="0.2"
   style="stop-color:#FFC222"
   id="stop403" />
			<stop
   offset="0.35"
   style="stop-color:#FFC222"
   id="stop405" />
			<stop
   offset="1"
   style="stop-color:#D4A52E"
   id="stop407" />
		</linearGradient>
		<path
   d="m 72.12,139.525 c -0.467,-0.277 -1.011,-0.488 -1.457,-0.309 l 16.063,-55.66 c 0.25,-0.105 0.844,-0.27 1.453,0.156 L 72.12,139.525 z"
   id="path409"
   inkscape:connector-curvature="0"
   style="fill:url(#XMLID_64_)" />
		<linearGradient
   id="XMLID_65_"
   gradientUnits="userSpaceOnUse"
   x1="144.2988"
   y1="116.2773"
   x2="142.89819"
   y2="115.8757">
			<stop
   offset="0"
   style="stop-color:#A87C3C"
   id="stop412" />
			<stop
   offset="1"
   style="stop-color:#FFD200"
   id="stop414" />
		</linearGradient>
		<path
   d="m 135.04,143.283 15.758,-54.582 c 0.029,-0.008 0.068,-0.047 0.094,-0.051 0.838,-0.086 1.227,0.359 1.227,0.359 l -15.715,54.496 c -0.001,0.001 -0.665,-0.515 -1.364,-0.222 z"
   id="path416"
   inkscape:connector-curvature="0"
   style="fill:url(#XMLID_65_)" />
		<path
   clip-rule="evenodd"
   d="m 137.448,145.701 c -32.396,13.848 -53.176,5.332 -67.489,-4.305 l 0.15,-0.125 c 14.313,9.633 36.339,17.656 66.778,4.219 0.252,0.199 0.561,0.211 0.561,0.211 z"
   id="path418"
   inkscape:connector-curvature="0"
   style="fill:#a87c3c;fill-rule:evenodd" />
		<linearGradient
   id="XMLID_66_"
   gradientUnits="userSpaceOnUse"
   x1="136.95461"
   y1="143.748"
   x2="136.2509"
   y2="145.32851">
			<stop
   offset="0"
   style="stop-color:#C19236"
   id="stop421" />
			<stop
   offset="1"
   style="stop-color:#D4A52E"
   id="stop423" />
		</linearGradient>
		<path
   clip-rule="evenodd"
   d="m 136.393,143.498 1.334,1.121 c 0,0 -0.18,0.648 -0.902,0.965 l -1.355,-1.125 c 0.722,-0.316 0.923,-0.961 0.923,-0.961 z"
   id="path425"
   inkscape:connector-curvature="0"
   style="fill:url(#XMLID_66_);fill-rule:evenodd" />
		<linearGradient
   id="XMLID_67_"
   gradientUnits="userSpaceOnUse"
   x1="71.436996"
   y1="145.625"
   x2="135.6938"
   y2="145.625">
			<stop
   offset="0"
   style="stop-color:#D4A52E"
   id="stop428" />
			<stop
   offset="0.4"
   style="stop-color:#FFD200"
   id="stop430" />
			<stop
   offset="1"
   style="stop-color:#D4A52E"
   id="stop432" />
		</linearGradient>
		<path
   d="m 135.196,143.154 c -0.113,0.832 0.498,1.434 0.498,1.434 -33.037,13.664 -49.957,5.473 -64.257,-4.219 0.252,-0.184 0.375,-0.344 0.536,-0.922 0.021,0.012 0.221,-0.02 0.241,-0.008 14.761,9.09 33.654,16.274 62.982,3.715 z"
   id="path434"
   inkscape:connector-curvature="0"
   style="fill:url(#XMLID_67_)" />
		<path
   clip-rule="evenodd"
   d="m 70.115,141.326 1.322,-0.957 c 13.117,8.18 31.501,17.141 64.114,4.055 l 1.348,1.125 c -30.313,13.426 -52.471,5.414 -66.784,-4.223 z"
   id="path436"
   inkscape:connector-curvature="0"
   style="fill:#c19236;fill-rule:evenodd" />
		<path
   clip-rule="evenodd"
   d="m 70.227,141.369 -0.15,0.105 c 0,0 -0.87,-0.48 -0.561,-1.363 0.071,0.871 0.711,1.258 0.711,1.258 z"
   id="path438"
   inkscape:connector-curvature="0"
   style="fill:#d4a52e;fill-rule:evenodd" />
		<linearGradient
   id="XMLID_68_"
   gradientUnits="userSpaceOnUse"
   x1="70.992203"
   y1="140.8633"
   x2="69.9571"
   y2="139.7137">
			<stop
   offset="0"
   style="stop-color:#D4A52E"
   id="stop441" />
			<stop
   offset="0.1"
   style="stop-color:#D4A52E"
   id="stop443" />
			<stop
   offset="0.7"
   style="stop-color:#FFD200"
   id="stop445" />
			<stop
   offset="1"
   style="stop-color:#D4A52E"
   id="stop447" />
		</linearGradient>
		<path
   d="m 69.516,140.111 1.242,-1.016 c -0.068,0.91 0.813,1.246 0.813,1.246 l -1.364,1.043 c 0.001,0.001 -0.76,-0.366 -0.691,-1.273 z"
   id="path449"
   inkscape:connector-curvature="0"
   style="fill:url(#XMLID_68_)" />
		<linearGradient
   id="XMLID_69_"
   gradientUnits="userSpaceOnUse"
   x1="71.022499"
   y1="138.93359"
   x2="71.754898"
   y2="140.2549">
			<stop
   offset="0"
   style="stop-color:#D4A52E"
   id="stop452" />
			<stop
   offset="0.4"
   style="stop-color:#FFC222"
   id="stop454" />
			<stop
   offset="0.8"
   style="stop-color:#FFCD02"
   id="stop456" />
			<stop
   offset="1"
   style="stop-color:#D4A52E"
   id="stop458" />
		</linearGradient>
		<path
   d="m 70.666,139.131 c 0.445,-0.18 0.862,0.031 1.331,0.305 -0.163,0.582 -0.261,0.785 -0.513,0.969 -0.294,-0.176 -0.893,-0.536 -0.818,-1.274 z"
   id="path460"
   inkscape:connector-curvature="0"
   style="fill:url(#XMLID_69_)" />
		<g
   id="g462">
			<defs
   id="defs464">
				<path
   id="XMLID_35_"
   d="m 88.131,83.682 c 14.313,9.633 29.822,16.309 62.76,4.969 l -15.703,54.578 c -28.98,12.742 -48.541,5.09 -63.201,-3.77 L 88.131,83.682 z"
   inkscape:connector-curvature="0" />
			</defs>
			<clipPath
   id="XMLID_70_">
				<use
   xlink:href="#XMLID_35_"
   id="use468"
   x="0"
   y="0"
   width="812.04401"
   height="152.966" />
			</clipPath>
			<linearGradient
   id="XMLID_71_"
   gradientUnits="userSpaceOnUse"
   x1="140.96581"
   y1="123.625"
   x2="81.422997"
   y2="106.5514">
				<stop
   offset="0"
   style="stop-color:#FFC907"
   id="stop471" />
				<stop
   offset="0.1667"
   style="stop-color:#FFD200"
   id="stop473" />
				<stop
   offset="0.3333"
   style="stop-color:#FFD952"
   id="stop475" />
				<stop
   offset="0.625"
   style="stop-color:#FFCD02"
   id="stop477" />
				<stop
   offset="1"
   style="stop-color:#B77A36"
   id="stop479" />
			</linearGradient>
			<path
   clip-path="url(#XMLID_70_)"
   d="m 88.226,83.334 c 14.313,9.637 30.212,17.313 63.243,3.66 l -16.281,56.234 c -33.037,13.664 -48.903,5.926 -63.201,-3.77 L 88.226,83.334 z"
   id="path481"
   inkscape:connector-curvature="0"
   style="fill:url(#XMLID_71_)" />
			<path
   clip-path="url(#XMLID_70_)"
   d="m 88.226,83.334 c 14.313,9.637 30.212,17.313 63.243,3.66 l -16.281,56.234 c -33.037,13.664 -48.903,5.926 -63.201,-3.77 L 88.226,83.334 z"
   id="path483"
   inkscape:connector-curvature="0"
   style="fill:none" />
		</g>
		<path
   clip-rule="evenodd"
   d="m 86.933,83.182 -0.17,0.398 -1.178,0.852 c 0.076,-0.355 0.984,-1.012 1.264,-1.207 0.037,-0.028 0.084,-0.043 0.084,-0.043 z"
   id="path485"
   inkscape:connector-curvature="0"
   style="fill:#ffcd02;fill-rule:evenodd" />
		<linearGradient
   id="XMLID_72_"
   gradientUnits="userSpaceOnUse"
   x1="88.188004"
   y1="83.368202"
   x2="86.717003"
   y2="83.265297">
			<stop
   offset="0"
   style="stop-color:#FFC222"
   id="stop488" />
			<stop
   offset="0.2"
   style="stop-color:#FFC222"
   id="stop490" />
			<stop
   offset="0.525"
   style="stop-color:#FFD200"
   id="stop492" />
			<stop
   offset="1"
   style="stop-color:#D4A52E"
   id="stop494" />
		</linearGradient>
		<path
   d="m 88.133,83.686 c -0.657,-0.383 -1.193,-0.152 -1.443,-0.043 0.039,-0.121 0.174,-0.426 0.174,-0.426 0.532,-0.34 0.774,-0.34 1.271,-0.102 0.096,0.235 0.033,0.422 -0.002,0.571 z"
   id="path496"
   inkscape:connector-curvature="0"
   style="fill:url(#XMLID_72_)" />
	</g>
</g>
</svg>